<?xml version="1.0" encoding="utf-8"?>
<!-- Generator: Adobe Illustrator 19.1.0, SVG Export Plug-In . SVG Version: 6.00 Build 0)  -->
<svg version="1.0" id="Layer_1" xmlns="http://www.w3.org/2000/svg" xmlns:xlink="http://www.w3.org/1999/xlink" x="0px" y="0px"
	 viewBox="64 -64 150 150" style="enable-background:new 64 -64 150 150;" xml:space="preserve">
<style type="text/css">
	.st0{fill:#FF6464;}
	.st1{fill:#ADA8D2;}
</style>
<g>
	<g>
		<path class="st0" d="M177.7-30.1H148l-3.9,7.6h33.6c2.1,0,3.8-1.7,3.8-3.8S179.8-30.1,177.7-30.1z"/>
	</g>
	<path class="st1" d="M102.7,40.7c-3.1,0-5.6-2.5-5.6-5.6v-51.7c0-3.1,2.5-5.6,5.6-5.6h41.4l-33.1,63H102.7z"/>
	<g>
		<path d="M164-14.6c-4.4,0-8,3.6-8,8c0,1.9,0.7,3.7,1.8,5.1L147.1,17c-0.9-0.4-1.9-0.6-3-0.6c-1.6,0-3.1,0.5-4.4,1.3L128.3,6.1
			c0.6-1.1,1-2.4,1-3.8c0-4.4-3.6-8-8-8c-4.4,0-8,3.6-8,8c0,1.2,0.3,2.3,0.7,3.3l-6.7,6.3c-0.8,0.7-0.8,2-0.1,2.8
			c0.4,0.4,0.9,0.6,1.4,0.6c0.5,0,1-0.2,1.3-0.5l6.5-6.1c1.3,1,3,1.6,4.8,1.6c1.6,0,3.1-0.5,4.4-1.3L137,20.6c-0.6,1.1-1,2.4-1,3.8
			c0,4.4,3.6,8,8,8s8-3.6,8-8c0-1.9-0.7-3.7-1.8-5.1L161,0.9c0.9,0.4,1.9,0.6,3,0.6c4.4,0,8-3.6,8-8S168.4-14.6,164-14.6z
			 M117.2,2.3c0-2.2,1.8-4.1,4.1-4.1c2.2,0,4.1,1.8,4.1,4.1s-1.8,4.1-4.1,4.1C119,6.4,117.2,4.6,117.2,2.3z M144.1,28.5
			c-2.2,0-4.1-1.8-4.1-4.1s1.8-4.1,4.1-4.1s4.1,1.8,4.1,4.1S146.3,28.5,144.1,28.5z M164-2.5c-2.2,0-4.1-1.8-4.1-4.1
			s1.8-4.1,4.1-4.1c2.2,0,4.1,1.8,4.1,4.1S166.3-2.5,164-2.5z"/>
		<path d="M177.7-32.1h-43.1c-1,0-1.8-0.8-1.8-1.8c0-1,0.8-1.8,1.8-1.8h9.9c1.1,0,1.8,0.7,1.8,0.8c0,1.1,0.9,2,2,2c1.1,0,2-0.9,2-2
			c0-2.6-2.6-4.8-5.7-4.8h-9.9c-3.2,0-5.7,2.6-5.7,5.7c0,3.2,2.6,5.7,5.7,5.7h43.1c1,0,1.8,0.8,1.8,1.8c0,1-0.8,1.8-1.8,1.8h-75.6
			c-4.2,0-7.6,3.4-7.6,7.6v51.7c0,4.2,3.4,7.6,7.6,7.6h30.4l-8.8,16.4c-0.5,1-0.2,2.2,0.8,2.7c0.3,0.2,0.6,0.2,0.9,0.2
			c0.7,0,1.4-0.4,1.7-1l9.8-18.2h0.6v10.1c0,1.1,0.9,2,2,2s2-0.9,2-2V42.4h0.5c0.1,0,0.2,0.1,0.2,0.1l9.8,18.1c0.4,0.7,1,1,1.7,1
			c0.3,0,0.6-0.1,0.9-0.2c1-0.5,1.3-1.7,0.8-2.7l-9.8-18.2c-0.8-1.3-2.2-2.1-3.7-2.1h-39.9c-2,0-3.7-1.6-3.7-3.7V-17
			c0-2,1.6-3.7,3.7-3.7h75.6c3.2,0,5.7-2.6,5.7-5.7C183.5-29.5,180.9-32.1,177.7-32.1z"/>
	</g>
</g>
</svg>
