<?xml version="1.0" encoding="utf-8"?>
<!-- Generator: Adobe Illustrator 17.1.0, SVG Export Plug-In . SVG Version: 6.00 Build 0)  -->
<!DOCTYPE svg PUBLIC "-//W3C//DTD SVG 1.1//EN" "http://www.w3.org/Graphics/SVG/1.1/DTD/svg11.dtd">
<svg version="1.1" id="Layer_1" xmlns="http://www.w3.org/2000/svg" xmlns:xlink="http://www.w3.org/1999/xlink" x="0px" y="0px"
	 viewBox="0 0 150 150" enable-background="new 0 0 150 150" xml:space="preserve">
<g>
	<path fill="none" d="M93.6,45.9c1.7,1.2,3.7,1.9,5.8,1.9c3.1,0,5.9-1.4,7.8-3.9c1.6-2.1,2.2-4.6,1.8-7.2c-0.4-2.6-1.7-4.8-3.8-6.4
		c-1.7-1.2-3.7-1.9-5.8-1.9c-3.1,0-5.9,1.4-7.8,3.9C88.4,36.7,89.3,42.7,93.6,45.9z"/>
	<path fill="none" d="M93.3,56.7L93.3,56.7L73.4,40.9c-0.8-0.7-1.9-1.2-3.1-1.2c-1.4,0-2.6,0.6-3.5,1.6l-0.1,0.1L48,60
		c-0.8,0.9-1.2,2.1-1.1,3.4c0.1,1.3,0.6,2.4,1.6,3.2c0.8,0.7,1.9,1.2,3.1,1.2c1.4,0,2.6-0.6,3.5-1.6l15.8-17.4l7.7,6.7L52.6,93l0,0
		L93.3,56.7z"/>
	<path fill="#F5AD22" d="M51.9,94c-0.2,0.4-0.9,1.7-1.8,2.9L85,73.8l0,0l5.6-7.6l2.6,2.1l0,0l8-5.3l0,0l-8-6.3L52.5,93L51.9,94z"/>
	<path fill="#53B262" d="M100.1,73.9c0.9,0.8,2,1.2,3.1,1.2c1.4,0,2.6-0.6,3.5-1.6l15.6-18.7c0.8-0.8,1.2-1.9,1.1-3
		c0-0.1,0-0.3,0-0.4c-0.1-1.3-0.6-2.4-1.6-3.2c-0.8-0.7-1.9-1.1-3.1-1.1c-1.3,0-2.6,0.5-3.5,1.5l-11.7,16.5l-2.4-1.9l-8,5.3
		L100.1,73.9z"/>
	<path fill="#53B262" d="M50,97c-0.5,0.7-1.1,1.5-1.7,2c-1.6,1.5-5.4,3.6-6,4l-14.9,9.9c-0.6,0.9-0.9,1.9-0.9,2.9c0,0.3,0,0.7,0.1,1
		c0.2,1.5,1,2.8,2.2,3.7c1,0.7,2.1,1.1,3.3,1.1c1.8,0,3.3-0.7,4.6-2l0.2-0.2l14.5-10.4c2.3-1.5,6.5-4.2,7.4-5.2
		c0.9-0.9,2.1-3.4,2.7-4.7l0.1-0.2l5.7-9.8l7.1,5.3l0,0l-9,13.2c-0.8,1-1.1,2.3-1.1,3.5c0.1,1.6,0.8,3.2,2.2,4.3
		c1,0.7,2.1,1.1,3.3,1.1c1.8,0,3.5-0.8,4.5-2.2l12.3-17.6c0.7-1,1-2.1,1-3.1c-0.1-1.7-1-3.5-2.2-4.8L78,83.1l0,0l6.9-9.3L50,97
		C50.1,96.9,50,97,50,97z"/>
	<path d="M91.7,48.5c2.2,1.7,4.9,2.5,7.7,2.5c4.1,0,7.9-1.9,10.4-5.2c2-2.8,2.9-6.2,2.4-9.6c-0.5-3.4-2.3-6.4-5.1-8.5
		c-2.2-1.7-4.9-2.5-7.7-2.5c-4.1,0-7.9,1.9-10.4,5.2C84.8,36.2,86,44.3,91.7,48.5z M91.6,32.4c1.9-2.5,4.7-3.9,7.8-3.9
		c2.1,0,4.1,0.7,5.8,1.9c2.1,1.5,3.4,3.8,3.8,6.4c0.4,2.6-0.3,5.1-1.8,7.2c-1.9,2.5-4.7,3.9-7.8,3.9c-2.1,0-4.1-0.7-5.8-1.9
		C89.3,42.7,88.4,36.7,91.6,32.4z"/>
	<path d="M126.7,51.1c-0.1-2.1-1.1-4-2.7-5.4c-1.4-1.3-3.3-2-5.2-2c-2.3,0-4.4,1-5.9,2.7L103,60.3L75.5,38.4
		c-1.4-1.2-3.3-1.9-5.2-1.9c-2.3,0-4.4,1-5.9,2.6L45.8,57.8l-0.1,0.1c-1.4,1.6-2.1,3.6-1.9,5.7c0.1,2.1,1.1,4,2.7,5.4
		c1.4,1.3,3.3,2,5.2,2c2.3,0,4.4-1,5.9-2.7l13.6-15.1l3.2,2.8L49.2,92.2l-0.1,0.2c-0.4,0.8-1.8,3.2-2.9,4.3c-1.1,1.1-4.3,3-5.5,3.6
		l-15.5,10.3l-0.2,0.2c-1.4,1.9-2,4.2-1.6,6.5c0.4,2.3,1.6,4.4,3.4,5.8c1.5,1.1,3.3,1.7,5.2,1.7c2.7,0,4.7-1.6,6.9-3.3l14.2-9.9
		c0.8-0.5,6.5-4.1,8-5.6c1.5-1.5,3.1-4.9,3.3-5.6l3.8-6.6l1.8,1.3l-7.2,10.6c-2.9,3.9-2,9.3,1.8,12.2c1.5,1.1,3.3,1.7,5.2,1.7
		c2.8,0,5.4-1.3,7.1-3.5l12.3-17.6c2.6-3.5,2-8.5-1.6-12.1l-5.1-3.8l8.7-11.7l6.7,5.5l0,0c1.4,1.3,3.3,2,5.2,2c2.3,0,4.4-1,6-2.7
		l15.6-18.7C126.2,55.2,126.8,53.2,126.7,51.1z M78.6,55.5l-7.7-6.7L55.1,66.2c-0.9,1-2.2,1.6-3.5,1.6c-1.1,0-2.3-0.4-3.1-1.2
		c-1-0.8-1.5-2-1.6-3.2c-0.1-1.2,0.3-2.5,1.1-3.4l18.7-18.6l0.1-0.1c0.9-1,2.2-1.6,3.5-1.6c1.1,0,2.3,0.4,3.1,1.2l19.8,15.8l0,0
		l8,6.3l0,0l2.4,1.9l11.7-16.5c0.9-1,2.2-1.5,3.5-1.5c1.1,0,2.3,0.4,3.1,1.1c1,0.8,1.5,2,1.6,3.2c0,0.1,0,0.3,0,0.4
		c0.1,1.1-0.4,2.2-1.1,3l-15.6,18.7c-0.9,1-2.2,1.6-3.5,1.6c-1.1,0-2.3-0.4-3.1-1.2l-6.8-5.5l0,0l-2.6-2.1L85,73.8l0,0l-6.9,9.3l0,0
		l7.4,5.5c1.3,1.3,2.2,3,2.2,4.8c0,1.1-0.3,2.1-1,3.1l-12.3,17.6c-1,1.4-2.7,2.2-4.5,2.2c-1.2,0-2.3-0.4-3.3-1.1
		c-1.4-1-2.2-2.6-2.2-4.3c-0.1-1.2,0.3-2.5,1.1-3.5l9-13.2l0,0L67.2,89l-5.7,9.8L61.5,99c-0.6,1.3-1.8,3.8-2.7,4.7
		c-1,1-5.1,3.7-7.4,5.2l-14.5,10.4l-0.2,0.2c-1.3,1.3-2.9,2-4.6,2c-1.2,0-2.3-0.4-3.3-1.1c-1.2-0.9-2-2.2-2.2-3.7
		c-0.1-0.4-0.1-0.7-0.1-1c0-1,0.4-2,0.9-2.9l14.9-9.9c0.7-0.4,4.4-2.5,6-4c0.6-0.5,1.1-1.3,1.7-2c0,0,0-0.1,0.1-0.1
		c0.9-1.3,1.6-2.5,1.8-2.9l0.7-1l0,0L78.6,55.5z"/>
</g>
</svg>
