<?xml version="1.0" encoding="utf-8"?>
<!-- Generator: Adobe Illustrator 17.1.0, SVG Export Plug-In . SVG Version: 6.00 Build 0)  -->
<!DOCTYPE svg PUBLIC "-//W3C//DTD SVG 1.1//EN" "http://www.w3.org/Graphics/SVG/1.1/DTD/svg11.dtd">
<svg version="1.1" id="Layer_1" xmlns="http://www.w3.org/2000/svg" xmlns:xlink="http://www.w3.org/1999/xlink" x="0px" y="0px"
	 viewBox="0 0 150 150" enable-background="new 0 0 150 150" xml:space="preserve">
<g>
	<path fill="none" d="M41.1,76.6L39.6,75l1.5-1.6c0.1-0.1,9-9,20.2-17.8c3.4-2.7,6.6-5,9.6-7.1c-7.4-4.4-13.5-6.6-18.1-6.6
		c-18.2,0-33.1,14.8-33.1,33.1c0,18.2,14.8,33.1,33.1,33.1c4.6,0,10.7-2.3,18.1-6.6c-3-2.1-6.3-4.5-9.6-7.1
		C50.1,85.6,41.2,76.7,41.1,76.6z"/>
	<path fill="none" d="M95.8,107.7c0,0,0.1,0,0.1,0l0.3,0.1v-0.1C96,107.7,95.9,107.7,95.8,107.7z"/>
	<path fill="#86E2D5" d="M87.3,44.3c-1.9,0.8-4,1.8-6.1,3c1,0.7,1.9,1.4,2.9,2.1C85,47.5,86.1,45.8,87.3,44.3z"/>
	<path fill="#86E2D5" d="M99.8,42.1L99.6,42v10.3h9.6l-0.1-0.3C106.6,46.5,103.3,43,99.8,42.1z"/>
	<path fill="#86E2D5" d="M96.1,52.3V42l-0.3,0.1c-3.4,0.9-6.6,4.3-9,9.4c0.3,0.2,0.7,0.5,1,0.8H96.1z"/>
	<path fill="#86E2D5" d="M87.5,105.7c-1.3-1.5-2.4-3.3-3.5-5.4c-1,0.8-2.1,1.5-3.1,2.2C83.3,103.8,85.5,104.9,87.5,105.7z"/>
	<path fill="#86E2D5" d="M112.9,52.1l0.1,0.1h8.2c-3.6-3.8-8.2-6.8-13.3-8.6l0.1,0.1C109.9,46,111.6,48.8,112.9,52.1z"/>
	<path fill="#86E2D5" d="M96.1,55.7h-3.9c1.4,1.1,2.7,2.2,3.9,3.3V55.7z"/>
	<path fill="#86E2D5" d="M116.5,83.7c-0.5,3.6-1.2,7-2.1,10.1l-0.1,0.3h9.9c2.2-3.1,3.9-6.7,5-10.5h-12.6L116.5,83.7z"/>
	<path fill="#86E2D5" d="M114.3,56c1,3.1,1.7,6.5,2.1,10.1l0,0.2h12.6c0-0.1,0-0.1-0.1-0.2c-0.1-0.3-0.2-0.5-0.2-0.8
		c-0.1-0.3-0.2-0.5-0.2-0.8c-0.1-0.3-0.2-0.5-0.3-0.8c-0.1-0.2-0.2-0.5-0.3-0.8c-0.1-0.2-0.2-0.5-0.3-0.8c-0.1-0.2-0.2-0.5-0.3-0.7
		c-0.1-0.2-0.2-0.5-0.3-0.7c-0.8-1.8-1.8-3.4-3-5h-9.8L114.3,56z"/>
	<path fill="#86E2D5" d="M112.9,97.6c-1.4,3.3-3,6.2-4.9,8.4l-0.3,0.3c5.2-1.8,9.9-4.8,13.6-8.8H113L112.9,97.6z"/>
	<path fill="#86E2D5" d="M111.7,73.1l1.7,1.7l0,0l-1.7,1.7c0,0-1.4,1.4-3.7,3.6h5.4l0-0.2c0.1-1.6,0.2-3.3,0.2-5.1
		c0-1.8-0.1-3.5-0.2-5.1l0-0.2h-5.3C110.3,71.8,111.6,73.1,111.7,73.1z"/>
	<path fill="#86E2D5" d="M96.1,97.5h-8.4c-0.3,0.2-0.6,0.5-0.9,0.7c2.4,5.1,5.6,8.5,8.9,9.5c0.1,0,0.3,0,0.4,0V97.5z"/>
	<path fill="#86E2D5" d="M109.1,97.8l0.1-0.3h-9.6v10.3l0.3-0.1C103.3,106.7,106.6,103.2,109.1,97.8z"/>
	<path fill="#86E2D5" d="M130,79.2c0-0.2,0-0.4,0.1-0.6c0-0.1,0-0.2,0-0.4c0,0,0-0.1,0-0.2c0-0.4,0.1-0.8,0.1-1.2c0-0.1,0-0.2,0-0.3
		c0-0.6,0-1.1,0-1.7c0-0.5,0-1.1,0-1.6c0-0.6-0.1-1.1-0.1-1.7c0-0.3-0.1-0.7-0.1-1c0-0.2,0-0.4-0.1-0.7c0-0.1,0-0.2-0.1-0.4h-13
		l0,0.2c0.1,1.8,0.2,3.5,0.2,5c0,1.6-0.1,3.2-0.2,5l0,0.2h13c0-0.1,0-0.2,0-0.3C129.9,79.7,130,79.5,130,79.2z"/>
	<path fill="#86E2D5" d="M113,66.2l0-0.2c-0.5-3.6-1.3-7-2.3-10.1l0-0.1h-11v6.2c1.7,1.5,3.3,3,4.8,4.3H113z"/>
	<path fill="#86E2D5" d="M99.6,94.1h11l0-0.1c1.1-3.1,1.8-6.5,2.3-10.1l0-0.2h-8.7c-1.4,1.3-3,2.7-4.7,4.2V94.1z"/>
	<path fill="#86E2D5" d="M96.1,94.1v-3.4c-1.3,1.1-2.7,2.2-4,3.4H96.1z"/>
	<path fill="#2ECC71" d="M51.4,69.8L51.4,69.8l-2.2,2c-0.2,0.2-0.5,0.4-0.7,0.7l-0.3,0.3l-0.9,0.8L46.8,74l-0.4,0.4
		C46,74.8,45.8,75,45.8,75l5.1,4.8c0,0,0.1,0.1,0.2,0.1l0.2,0.2l7.3,6.3l6.6,5.4c0,0,0.1,0.1,0.2,0.1c4,3.1,7.5,5.7,9.6,6.9
		c0.2-0.1,0.5-0.3,0.7-0.4c2.8-1.8,5.9-4,9-6.5l0.5-0.5l6.8-5.5c0,0,0.1-0.1,0.1-0.1l1.6-1.3c1.8-1.5,3.5-3.1,5-4.5l0,0.1l1.1-1
		l4.5-4.2l-0.4-0.4c-2.2-2.1-5.7-5.4-10.1-9.2L85.8,59l-1.2-1c-1.4-1.1-2.9-2.2-4.4-3.3l-2.5-1.8c-0.1-0.1-0.2-0.2-0.4-0.3L75,51.1
		c-1.2,0.7-2.6,1.6-4,2.6C64.5,58.2,56.6,65.1,51.4,69.8z"/>
	<path fill="#FFFFFF" d="M89.6,96.1c0.8-0.7,1.7-1.3,2.5-2c1.4-1.1,2.7-2.3,4-3.4c1.2-1,2.3-2,3.4-3c1.7-1.5,3.3-2.9,4.7-4.2
		c1.4-1.3,2.7-2.4,3.7-3.4c2.3-2.2,3.7-3.5,3.7-3.6l1.7-1.7l0,0l-1.7-1.7c0,0-1.4-1.4-3.6-3.5c-1-1-2.3-2.2-3.7-3.4
		c-1.4-1.3-3-2.7-4.8-4.3c-1.1-1-2.2-2-3.4-3c-1.3-1.1-2.6-2.2-3.9-3.3c-0.9-0.7-1.7-1.4-2.6-2.1c-0.6-0.5-1.2-0.9-1.7-1.4
		c-0.3-0.3-0.7-0.5-1-0.8c-1-0.7-1.9-1.4-2.8-2.1c-1-0.7-1.9-1.4-2.9-2.1c-0.7,0.4-1.4,0.8-2.1,1.2c0,0,0,0,0,0
		c3,2.1,6.2,4.4,9.6,7.1c11.2,8.8,20.1,17.7,20.2,17.8l1.5,1.6l0,0l-1.5,1.5c-0.1,0.1-9,9-20.2,17.8c-3.3,2.6-6.5,5-9.5,7
		c0,0-0.1,0-0.1,0.1c0,0,0,0,0,0c0.4,0.2,0.8,0.5,1.2,0.7c0.2,0.1,0.4,0.2,0.7,0.4c1-0.7,2-1.4,3.1-2.2c0.9-0.7,1.9-1.4,2.8-2.1
		c0.3-0.2,0.6-0.5,0.9-0.7C88.4,97,89,96.6,89.6,96.1z"/>
	<path d="M97.2,37.5c-5.8,0-13.2,2.8-22.2,8.3c-8.9-5.5-16.4-8.3-22.2-8.3c-20.7,0-37.5,16.8-37.5,37.5c0,20.7,16.8,37.5,37.5,37.5
		c5.8,0,13.2-2.8,22.2-8.4c8.9,5.6,16.4,8.4,22.2,8.4c20.7,0,37.5-16.8,37.5-37.5C134.7,54.3,117.9,37.5,97.2,37.5z M124.2,94.1
		h-9.9l0.1-0.3c1-3.1,1.7-6.5,2.1-10.1l0-0.2h12.6C128.1,87.4,126.4,90.9,124.2,94.1z M127,60.7c0.1,0.2,0.2,0.5,0.3,0.7
		c0.1,0.2,0.2,0.5,0.3,0.7c0.1,0.2,0.2,0.5,0.3,0.8c0.1,0.2,0.2,0.5,0.3,0.8c0.1,0.3,0.2,0.5,0.3,0.8c0.1,0.2,0.2,0.5,0.2,0.8
		c0.1,0.3,0.2,0.5,0.2,0.8c0,0.1,0,0.1,0.1,0.2h-12.6l0-0.2c-0.5-3.6-1.2-7-2.1-10.1l-0.1-0.3h9.8C125.2,57.3,126.2,58.9,127,60.7z
		 M121.2,52.3H113l-0.1-0.1c-1.4-3.3-3-6.1-4.9-8.4l-0.1-0.1C113.1,45.4,117.6,48.4,121.2,52.3z M109.2,52.3h-9.6V42l0.3,0.1
		c3.5,1,6.8,4.5,9.2,9.9L109.2,52.3z M77.2,52.6c0.1,0.1,0.3,0.2,0.4,0.3l2.5,1.8c1.5,1.1,3,2.2,4.4,3.3l1.2,1l7.9,6.5
		c4.4,3.8,7.9,7,10.1,9.2l0.4,0.4l-4.5,4.2l-1.1,1l0-0.1c-1.6,1.4-3.2,2.9-5,4.5L92,85.9c0,0-0.1,0.1-0.1,0.1l-6.8,5.5L84.6,92
		c-3.1,2.4-6.2,4.7-9,6.5c-0.2,0.2-0.5,0.3-0.7,0.4c-2.1-1.2-5.6-3.7-9.6-6.9c0,0-0.1-0.1-0.2-0.1l-6.6-5.4l-7.3-6.3l-0.2-0.2
		c-0.1,0-0.1-0.1-0.2-0.1L45.8,75c0,0,0.2-0.2,0.6-0.6l0.4-0.4l0.5-0.5l0.9-0.8l0.3-0.3c0.2-0.2,0.5-0.4,0.7-0.7l2.1-2h0.1
		c5.2-4.7,13.1-11.6,19.6-16.1c1.4-1,2.8-1.9,4-2.6L77.2,52.6z M95.9,107.7c0,0-0.1,0-0.1,0c-3.3-1-6.5-4.3-8.9-9.5
		c-0.9,0.7-1.9,1.4-2.8,2.1c1,2.1,2.2,3.9,3.5,5.4c-2-0.8-4.2-1.9-6.5-3.2c-0.2-0.1-0.4-0.2-0.7-0.4c-0.4-0.2-0.8-0.4-1.2-0.7
		c0,0,0,0,0,0c0,0,0.1,0,0.1-0.1c3-2,6.2-4.4,9.5-7c11.2-8.8,20.1-17.7,20.2-17.8l1.5-1.5l0,0l-1.5-1.6c-0.1-0.1-9-9-20.2-17.8
		c-3.3-2.6-6.5-5-9.6-7.1c0,0,0,0,0,0c0.7-0.4,1.4-0.8,2.1-1.2c2.2-1.2,4.2-2.2,6.1-3c-1.2,1.5-2.3,3.2-3.2,5.1
		c0.9,0.7,1.9,1.4,2.8,2.1c2.5-5.2,5.7-8.5,9-9.4l0.3-0.1v10.3h-8.3c0.6,0.4,1.2,0.9,1.7,1.4c0.9,0.7,1.8,1.4,2.6,2.1h3.9V59
		c1.2,1,2.3,2,3.4,3v-6.2h11l0,0.1c1.1,3.1,1.8,6.5,2.3,10.1l0,0.2h-8.6c1.4,1.3,2.7,2.5,3.7,3.4h5.3l0,0.2c0.1,1.6,0.2,3.3,0.2,5.1
		c0,1.7-0.1,3.5-0.2,5.1l0,0.2H108c-1,1-2.3,2.2-3.7,3.4h8.7l0,0.2c-0.5,3.6-1.3,7-2.3,10.1l0,0.1h-11v-6.3c-1.1,1-2.2,2-3.4,3v3.4
		h-4c-0.8,0.7-1.6,1.3-2.5,2c-0.6,0.5-1.2,1-1.8,1.4h8.4v10.2v0.1L95.9,107.7z M99.6,107.8V97.5h9.6l-0.1,0.3
		c-2.5,5.4-5.8,9-9.2,9.9L99.6,107.8z M107.8,106.3l0.3-0.3c1.9-2.2,3.5-5,4.9-8.4l0.1-0.1h8.4C117.7,101.5,113,104.5,107.8,106.3z
		 M116.8,80.1l0-0.2c0.1-1.8,0.2-3.5,0.2-5c0-1.6-0.1-3.2-0.2-5l0-0.2h13c0,0.1,0,0.2,0.1,0.4c0,0.2,0.1,0.4,0.1,0.7
		c0.1,0.3,0.1,0.7,0.1,1c0.1,0.6,0.1,1.1,0.1,1.7c0,0.5,0,1.1,0,1.6c0,0.6,0,1.1,0,1.7c0,0.1,0,0.2,0,0.3c0,0.4-0.1,0.8-0.1,1.2
		c0,0.1,0,0.1,0,0.2c0,0.1,0,0.2,0,0.4c0,0.2,0,0.4-0.1,0.6c0,0.2,0,0.4-0.1,0.6c0,0.1,0,0.2,0,0.3H116.8z M52.8,108.1
		c-18.2,0-33.1-14.8-33.1-33.1c0-18.2,14.8-33.1,33.1-33.1c4.6,0,10.7,2.2,18.1,6.6c-3,2-6.3,4.4-9.6,7.1
		c-11.2,8.8-20.1,17.7-20.2,17.8L39.6,75l1.5,1.6c0.1,0.1,9,9,20.2,17.8c3.4,2.6,6.6,5,9.6,7.1C63.5,105.8,57.4,108.1,52.8,108.1z"
		/>
</g>
</svg>
