<?xml version="1.0" encoding="utf-8"?>
<!-- Generator: Adobe Illustrator 17.1.0, SVG Export Plug-In . SVG Version: 6.00 Build 0)  -->
<!DOCTYPE svg PUBLIC "-//W3C//DTD SVG 1.1//EN" "http://www.w3.org/Graphics/SVG/1.1/DTD/svg11.dtd">
<svg version="1.1" id="Layer_1" xmlns="http://www.w3.org/2000/svg" xmlns:xlink="http://www.w3.org/1999/xlink" x="0px" y="0px"
	 viewBox="0 0 150 150" enable-background="new 0 0 150 150" xml:space="preserve">
<g>
	<polygon fill="none" points="101.3,63.8 113.3,57.2 113.3,43.8 101.3,50.6 	"/>
	<polygon fill="none" points="99.7,48 111.2,41.5 99.1,34.5 87.5,41.3 	"/>
	<polygon fill="none" points="96.1,32.8 84.6,26.1 73.1,32.9 84.5,39.6 	"/>
	<polygon fill="none" points="70.3,48 81.5,41.4 70.1,34.7 58.7,41.4 	"/>
	<polygon fill="none" points="71.6,63.8 82.7,57.3 82.7,44.2 71.6,50.8 	"/>
	<polygon fill="none" points="85.2,57.2 98.8,64.4 98.8,51 85.2,43.5 	"/>
	<polygon fill="none" points="85.2,112.4 103.5,122.2 103.5,104.1 85.2,94 	"/>
	<polygon fill="none" points="66.9,121.4 81.8,112.5 81.8,94.9 66.9,103.8 	"/>
	<polygon fill="none" points="84.3,70.7 68.8,79.9 84.2,88.8 99.8,79.7 	"/>
	<polygon fill="none" points="64.8,82.2 49.4,91.3 65.1,100.1 80.2,91.2 	"/>
	<polygon fill="none" points="103.9,82 88.3,91.1 104.7,100.2 120.1,91.4 	"/>
	<polygon fill="none" points="106.8,121.4 122.9,112.5 122.9,94.4 106.8,103.6 	"/>
	<polygon fill="#E24030" points="27.4,101.6 43.9,111.1 43.9,92.8 27.4,83.5 	"/>
	<polygon fill="#E24030" points="48,113.4 62.4,121.7 62.4,103.2 48,95.1 	"/>
	<path fill="#F5AD22" d="M45.5,88.9l15.3-9l-15.8-9.2l-15.6,9.2L29.4,80l5.2,2.9L45.4,89C45.5,89,45.5,88.9,45.5,88.9z"/>
	<path fill="#13110C" d="M124.9,89.5C124.9,89.5,124.9,89.5,124.9,89.5L85.3,66.6c0,0-0.1,0-0.1,0c-0.1,0-0.1-0.1-0.2-0.1
		c-0.1,0-0.1-0.1-0.2-0.1c-0.1,0-0.1,0-0.2,0c-0.1,0-0.1,0-0.2,0c-0.1,0-0.1,0-0.2,0c-0.1,0-0.1,0-0.2,0s-0.1,0-0.2,0s-0.1,0-0.2,0
		s-0.1,0-0.2,0.1c-0.1,0-0.1,0.1-0.2,0.1c0,0-0.1,0-0.1,0L64.8,77.5L46.1,66.6c0,0-0.1,0-0.1,0c-0.1,0-0.1-0.1-0.2-0.1
		c-0.1,0-0.1-0.1-0.2-0.1c-0.1,0-0.1,0-0.2,0c-0.1,0-0.1,0-0.2,0c-0.1,0-0.1,0-0.2,0c-0.1,0-0.1,0-0.2,0c-0.1,0-0.1,0-0.2,0
		c-0.1,0-0.1,0-0.2,0s-0.1,0-0.2,0.1c-0.1,0-0.1,0.1-0.2,0.1c0,0-0.1,0-0.1,0L25,77.9c0,0-0.7,0.3-0.9,0.8c-0.2,0.3-0.3,0.7-0.2,1
		c0,0,0,23,0,23c0.1,0.8,0.5,1.7,1.1,2.1l38.4,22.1c0.3,0.2,0.7,0.3,1,0.3c0.1,0,0.1,0,0.2,0c0,0,0.1,0,0.1,0c0.6,0,1.7-0.7,1.7-0.7
		l17.3-10.2l19.8,10.5c0.2,0.1,0.5,0.2,0.7,0.2c0.1,0,0.3,0,0.4,0c0.3,0,0.7-0.1,1-0.2l19.7-10.8c0.6-0.3,1-1,1-1.7
		c0-0.2,0-0.3,0-0.5V91.5C126.2,90.5,125.8,89.7,124.9,89.5z M62.4,121.7L48,113.4V95.1l14.4,8.1V121.7z M43.9,111.1l-16.5-9.5V83.5
		l16.5,9.3V111.1z M29.4,80l0.1-0.1l15.6-9.2l15.8,9.2l-15.3,9c-0.1,0-0.1,0.1-0.1,0.1l-10.9-6.1L29.4,80z M65.1,100.1l-15.7-8.9
		l15.4-9l15.4,9L65.1,100.1z M81.8,112.5l-15,8.9v-17.6l15-8.9V112.5z M68.8,79.9l15.5-9.2l15.5,8.9l-15.6,9.2L68.8,79.9z
		 M103.5,122.2l-18.3-9.7V94l18.3,10.1V122.2z M104.7,100.2l-16.4-9l15.6-9.1l16.3,9.4L104.7,100.2z M122.9,112.5l-16.1,8.9v-17.8
		l16.1-9.2V112.5z"/>
	<polygon fill="#E24030" points="54.5,42.5 42.2,35.6 42.2,49.1 54.5,56.1 	"/>
	<polygon fill="#E24030" points="57.5,57.9 68.3,64.1 68.3,50.3 57.5,44.2 	"/>
	<path fill="#F5AD22" d="M55.6,39.7c0,0,0.1-0.1,0.1-0.1L67.1,33l-11.7-6.8L43.7,33l-0.1,0l3.8,2.2L55.6,39.7z"/>
	<path fill="#13110C" d="M40.4,51.4L69,67.9c0.2,0.1,0.5,0.2,0.7,0.2c0.1,0,0.1,0,0.1,0c0,0,0.1,0,0.1,0c0.5,0,1.2-0.5,1.2-0.5
		L84.1,60l14.7,7.8c0.2,0.1,0.3,0.1,0.5,0.2c0.1,0,0.2,0,0.3,0c0.2,0,0.5-0.1,0.7-0.2l14.7-8.1c0.5-0.2,0.7-0.7,0.8-1.2
		c0-0.1,0-0.2,0-0.4V41.6c0-0.7-0.3-1.3-1-1.5c0,0-0.1,0-0.1-0.1l-29.4-17c0,0,0,0-0.1,0c-0.1,0-0.1-0.1-0.1-0.1c0,0-0.1,0-0.1-0.1
		c-0.1,0-0.1,0-0.1,0s-0.1,0-0.1,0s-0.1,0-0.1,0s-0.1,0-0.1,0c-0.1,0-0.1,0-0.1,0c-0.1,0-0.1,0-0.1,0c0,0-0.1,0-0.1,0.1
		c-0.1,0-0.1,0-0.1,0.1c0,0,0,0-0.1,0l-13.7,8.1l-13.9-8.1c0,0,0,0-0.1,0C56.1,23,56.1,23,56,23c0,0-0.1,0-0.1-0.1
		c-0.1,0-0.1,0-0.1,0s-0.1,0-0.1,0s-0.1,0-0.1,0c-0.1,0-0.1,0-0.1,0s-0.1,0-0.1,0c-0.1,0-0.1,0-0.1,0S55,23,54.9,23
		c-0.1,0-0.1,0-0.1,0.1c0,0,0,0-0.1,0l-14.3,8.3c0,0-0.5,0.2-0.7,0.6c-0.1,0.2-0.2,0.5-0.2,0.8c0,0,0,17.1,0,17.1
		C39.6,50.5,39.9,51.2,40.4,51.4z M43.7,33l11.6-6.8L67.1,33l-11.4,6.7c0,0-0.1,0.1-0.1,0.1l-8.1-4.6L43.7,33L43.7,33z M68.3,64.1
		l-10.7-6.2V44.2l10.7,6V64.1z M42.2,35.6l12.3,6.9v13.6l-12.3-7.1V35.6z M82.7,57.3l-11.2,6.6V50.8l11.2-6.6V57.3z M98.8,64.4
		l-13.6-7.2V43.5L98.8,51V64.4z M113.3,57.2l-12,6.6V50.6l12-6.8V57.2z M111.2,41.5L99.7,48l-12.2-6.7l11.6-6.8L111.2,41.5z
		 M84.6,26.1l11.6,6.6l-11.6,6.8l-11.4-6.7L84.6,26.1z M81.5,41.4L70.3,48l-11.7-6.6l11.4-6.7L81.5,41.4z"/>
</g>
</svg>
