<?xml version="1.0" encoding="utf-8"?>
<!-- Generator: Adobe Illustrator 17.1.0, SVG Export Plug-In . SVG Version: 6.00 Build 0)  -->
<!DOCTYPE svg PUBLIC "-//W3C//DTD SVG 1.1//EN" "http://www.w3.org/Graphics/SVG/1.1/DTD/svg11.dtd">
<svg version="1.1" id="Layer_1" xmlns="http://www.w3.org/2000/svg" xmlns:xlink="http://www.w3.org/1999/xlink" x="0px" y="0px"
	 viewBox="0 0 150 150" enable-background="new 0 0 150 150" xml:space="preserve">
<g>
	<path fill="none" d="M70.7,51.3H50.3c-0.8,0-1.4,0.7-1.4,1.4v1.4c0,0.8,0.7,1.4,1.4,1.4h7.5c0.8,0,1.5,0.7,1.5,1.5
		s-0.7,1.5-1.5,1.5H54v29.5l12.5-8V57.6c0-0.1,0-0.3,0-0.4c0-0.1,0-0.1,0-0.3c0-0.8,0.7-1.5,1.5-1.5h2.6c0.8,0,1.4-0.7,1.4-1.4h0.2
		v-1.4C72.1,51.9,71.4,51.3,70.7,51.3z"/>
	<path fill="none" d="M98.2,69.5H81.3c-0.7,0-1.1,0.6-1.1,1.1v1.1c0,0.7,0.6,1.1,1.1,1.1h6.1c0.7,0,1.2,0.5,1.2,1.2
		c0,0.7-0.5,1.2-1.2,1.2h-3v24.2L94.7,93V74.6c0-0.1,0-0.2,0-0.3c0-0.1,0-0.1,0-0.2c0-0.7,0.5-1.2,1.2-1.2H98c0.7,0,1.1-0.6,1.1-1.1
		h0v0h0.1v-1.1C99.3,70,98.7,69.5,98.2,69.5z"/>
	<path fill="#13110C" d="M102.4,40.8l-4.2-1.6c-0.1-0.7-0.3-1.3-0.4-2l3.1-3.3c0.9-1,1-2.5,0.3-3.7l-2.3-3.2c-0.5-0.6-1.1-1-1.9-1.2
		c-0.5-0.1-1.1,0-1.6,0.2l-4.1,1.8c-0.5-0.4-1.1-0.7-1.7-1.1l-0.1-4.5c0-1.4-1-2.5-2.4-2.8l-3.9-0.7c-1.3-0.2-2.7,0.5-3.2,1.8
		l-1.6,4.2c-0.7,0.1-1.3,0.3-2,0.4l-3.3-3.1c-0.4-0.4-0.9-0.7-1.5-0.7c-0.7-0.1-1.5,0-2.2,0.5l-3.2,2.3c-1.1,0.8-1.5,2.3-1,3.5
		l1.8,4.1c-0.4,0.5-0.7,1.1-1.1,1.7l-4.5,0.1c-1.4,0-2.5,1-2.8,2.4l-0.3,1.9h0c-0.1,0.7,0.4,1.4,1.2,1.6c0.8,0.1,1.5-0.4,1.7-1.2
		c0-0.1,0-0.2,0-0.2l0.3-1.6l4.5-0.1c1,0,2-0.6,2.5-1.5c0.3-0.5,0.6-1,0.9-1.4c0.6-0.8,0.7-1.9,0.3-2.9l-1.8-4.2l3.2-2.3l3.3,3.1
		c0.4,0.4,0.9,0.7,1.5,0.7c0.4,0.1,0.9,0.1,1.3-0.1c0.5-0.2,1.1-0.3,1.6-0.4c1-0.2,1.9-0.8,2.2-1.8l1.6-4.2l3.9,0.7l0.1,4.5
		c0,1,0.6,2,1.5,2.5c0.5,0.3,1,0.6,1.4,0.9c0.4,0.3,0.8,0.4,1.2,0.5c0.5,0.1,1.1,0,1.7-0.2l4.1-1.8l2.3,3.2l-3.1,3.3
		c-0.7,0.7-1,1.8-0.7,2.8c0.2,0.5,0.3,1.1,0.4,1.6c0.2,1,0.8,1.9,1.8,2.2l4.2,1.6l-0.7,3.9l-4.5,0.1c-1,0-2,0.6-2.5,1.5
		c-0.3,0.5-0.6,1-0.9,1.4c-0.6,0.8-0.7,1.9-0.3,2.9l1.8,4.1l-1.6,1.1c-0.4,0.2-0.6,0.6-0.7,1c-0.1,0.8,0.4,1.5,1.2,1.7
		c0.5,0.1,0.9-0.1,1.2-0.4l1.5-1.1c1.1-0.8,1.5-2.3,1-3.5L95.2,52c0.4-0.5,0.7-1.1,1.1-1.7l4.5-0.1c1.4,0,2.5-1,2.8-2.4l0.7-3.9
		C104.4,42.6,103.6,41.3,102.4,40.8z"/>
	<path fill="#020202" d="M88.5,41.2c0-4-3.2-7.2-7.2-7.2S74,37.2,74,41.2s3.2,7.2,7.2,7.2S88.5,45.2,88.5,41.2z M76.8,41.2
		c0-2.4,2-4.4,4.4-4.4s4.4,2,4.4,4.4s-2,4.4-4.4,4.4S76.8,43.6,76.8,41.2z"/>
	<circle fill="#CCE5C1" cx="81.2" cy="41.2" r="4.4"/>
	<path fill="#673693" d="M54,90.2V117c0,1.5,0.7,3.1,1.9,4.3c1.1,1.4,2.7,1.9,4.3,1.9c3.4,0,6.2-2.7,6.2-6.2V80.9v-1l-12.5,8V90.2z"
		/>
	<path fill="#010101" d="M70.6,48.2H50.1c-2.3,0-4.3,1.9-4.3,4.3v1.4c0,2.3,1.9,4.3,4.3,4.3h0.4v58.5c0,2.6,1.1,5,2.9,6.8
		c1.7,1.7,4.2,2.9,6.8,2.9c5.3,0,9.6-4.2,9.6-9.6V58.4h0.8c2.3,0,4.3-1.9,4.3-4.3v-1.4C74.8,50.2,72.9,48.2,70.6,48.2z M72.1,54.1
		h-0.2c0,0.7-0.5,1.4-1.4,1.4H68c-0.8,0-1.5,0.7-1.5,1.5c0,0.1,0,0.1,0,0.3c0,0.1,0,0.3,0,0.4v22.3v1V117c0,3.5-2.9,6.2-6.2,6.2
		c-1.6,0-3.3-0.5-4.3-1.9c-1.2-1.2-1.9-2.9-1.9-4.3V90.2v-2.2V58.4h3.7c0.8,0,1.5-0.7,1.5-1.5s-0.7-1.5-1.5-1.5h-7.5
		c-0.7,0-1.4-0.5-1.4-1.4v-1.4c0-0.7,0.5-1.4,1.4-1.4h20.5c0.7,0,1.4,0.5,1.4,1.4V54.1z"/>
	<path fill="#CCE5C1" d="M84.5,101.4v22c0,1.2,0.5,2.6,1.6,3.6c0.9,1.1,2.2,1.6,3.6,1.6c2.8,0,5.1-2.2,5.1-5.1V93.8V93l-10.2,6.6
		V101.4z"/>
	<path fill="#010101" d="M98,66.9H81.2c-1.9,0-3.6,1.6-3.6,3.6v1.1c0,1.9,1.6,3.6,3.6,3.6h0.3v48c0,2.1,0.9,4.1,2.3,5.6
		c1.4,1.4,3.5,2.3,5.6,2.3c4.3,0,7.9-3.5,7.9-7.9V75.3H98c1.9,0,3.6-1.6,3.6-3.6v-1.1C101.5,68.6,99.9,66.9,98,66.9z M99.3,71.7
		h-0.1v0h0c0,0.5-0.4,1.1-1.1,1.1h-2.1c-0.7,0-1.2,0.5-1.2,1.2c0,0.1,0,0.1,0,0.2c0,0.1,0,0.2,0,0.3V93v0.8v29.6
		c0,2.9-2.3,5.1-5.1,5.1c-1.3,0-2.7-0.4-3.6-1.6c-1-1-1.6-2.3-1.6-3.6v-22v-1.8V75.3h3c0.7,0,1.2-0.5,1.2-1.2c0-0.7-0.5-1.2-1.2-1.2
		h-6.1c-0.5,0-1.1-0.4-1.1-1.1v-1.1c0-0.5,0.4-1.1,1.1-1.1h16.8c0.5,0,1.1,0.4,1.1,1.1V71.7z"/>
</g>
</svg>
