<svg xmlns="http://www.w3.org/2000/svg" viewBox="0 0 110 110" enable-background="new 0 0 110 110"><path fill="none" d="M51.4 69.3c.6.4 1.2.8 1.7 1.2-.6-.3-1.2-.8-1.7-1.2zM48.2 43l-1 .8c-1.9 1.5-3.7 3-5.4 4.5 1.7-1.4 3.5-3 5.4-4.5l1-.8zM31.1 56.1L30 55l1.1-1.1c.1-.1 6.3-6.4 14.2-12.6 2.4-1.9 4.6-3.5 6.8-5-2.2 1.5-4.4 3.1-6.8 5-7.9 6.2-14.1 12.5-14.2 12.6L30 55l1.1 1.1c.1.1 6.3 6.4 14.2 12.6 2.4 1.9 4.6 3.5 6.8 5-5.2 3.1-9.5 4.7-12.7 4.7 3.2 0 7.6-1.6 12.7-4.7-2.2-1.5-4.4-3.1-6.8-5-7.9-6.2-14.1-12.5-14.2-12.6zM48.2 51.4h-9.9c-1.7 1.5-3 2.8-3.9 3.6.9-.8 2.2-2.1 3.9-3.6h9.9zM58.6 61.8v7.6c-1.2.9-2.5 1.7-3.6 2.5l-1.8-1.2 1.8 1.2c1.2-.8 2.4-1.6 3.6-2.5v-7.6zM61.8 51.4h9.9c1.7 1.5 3 2.8 3.9 3.6-.9-.8-2.2-2.1-3.9-3.6h-9.9zM62.7 43.8l-1-.8 1 .8c1.9 1.5 3.7 3 5.4 4.5-1.6-1.5-3.4-3-5.4-4.5zM70.6 31.7c-3.2 0-7.6 1.6-12.7 4.7 2.2 1.5 4.4 3.1 6.8 5 7.9 6.2 14.1 12.5 14.2 12.6l1.1 1-1.1 1.1c-.1.1-6.3 6.4-14.2 12.6-2.4 1.9-4.6 3.5-6.8 5 5.2 3.1 9.5 4.7 12.7 4.7 12.9 0 23.3-10.5 23.3-23.3 0-13-10.4-23.4-23.3-23.4z"/><path fill="#5DA9DC" d="M45.3 68.7c-7.9-6.2-14.1-12.5-14.2-12.6L30 55l1.1-1.1c.1-.1 6.3-6.4 14.2-12.6 2.4-1.9 4.6-3.5 6.8-5-5.2-3.1-9.5-4.7-12.7-4.7-12.9 0-23.3 10.5-23.3 23.3 0 12.9 10.5 23.3 23.3 23.3 3.2 0 7.6-1.6 12.7-4.7-2.2-1.3-4.4-3-6.8-4.8z"/><path fill="#F4D03E" d="M51.4 51.4h7.3v7.3h-7.3zM47.3 66.2l1 .8v-5.2h-6.4c1.6 1.4 3.4 2.9 5.4 4.4zM61.8 51.4v7.3h9.9c1.7-1.5 3-2.8 3.9-3.6-.9-.8-2.2-2.1-3.9-3.6l-9.9-.1zM48.2 51.4h-9.9c-1.7 1.5-3 2.8-3.9 3.6.9.8 2.2 2.1 3.9 3.6h9.9v-7.2zM51.4 48.2h7.3v-7.6c-1.2-.9-2.5-1.7-3.6-2.5-1.2.8-2.4 1.6-3.6 2.5v7.6zM61.8 43v5.2h6.4c-1.7-1.4-3.5-3-5.4-4.5l-1-.7zM58.6 69.3v-7.6h-7.3v7.6c.6.4 1.2.8 1.7 1.2l.1.1 1.8 1.2c1.3-.7 2.5-1.6 3.7-2.5zM48.2 43l-1 .8c-1.9 1.5-3.7 3-5.4 4.5h6.4V43zM61.8 67l1-.8c1.9-1.5 3.7-3 5.4-4.5h-6.4V67z"/><path fill="#010101" d="M70.6 28.6c-4.1 0-9.3 2-15.6 5.9-6.3-3.9-11.5-5.9-15.6-5.9C24.8 28.6 13 40.5 13 55c0 14.6 11.9 26.4 26.4 26.4 4.1 0 9.3-2 15.6-5.9 6.3 3.9 11.5 5.9 15.6 5.9C85.2 81.4 97 69.5 97 55c.1-14.6-11.8-26.4-26.4-26.4zM55 38.2c1.2.8 2.4 1.6 3.6 2.5v7.6h-7.3v-7.6c1.3-.9 2.5-1.8 3.7-2.5zm3.6 13.2v7.3h-7.3v-7.3h7.3zM39.4 78.3c-12.9 0-23.3-10.5-23.3-23.3 0-12.9 10.5-23.3 23.3-23.3 3.2 0 7.6 1.6 12.7 4.7-2.2 1.5-4.4 3.1-6.8 5-7.9 6.2-14.1 12.5-14.2 12.6L30 55l1.1 1.1c.1.1 6.3 6.4 14.2 12.6 2.4 1.9 4.6 3.5 6.8 5-5.2 3-9.5 4.6-12.7 4.6zm-1.1-19.7c-1.7-1.5-3-2.8-3.9-3.6.9-.8 2.2-2.1 3.9-3.6h9.9v7.3h-9.9zm9.9 3.2V67l-1-.8c-1.9-1.5-3.7-3-5.4-4.5h6.4zm-6.3-13.6c1.7-1.4 3.5-3 5.4-4.5l1-.8v5.2h-6.4zm11.3 22.4l-.1-.1c-.6-.4-1.1-.8-1.7-1.2v-7.6h7.3v7.6c-1.2.9-2.5 1.7-3.6 2.5-.7-.3-1.3-.7-1.9-1.2zm17.4 7.7c-3.2 0-7.6-1.6-12.7-4.7 2.2-1.5 4.4-3.1 6.8-5 7.9-6.2 14.1-12.5 14.2-12.6l1.1-1-1.1-1.1c-.1-.1-6.3-6.4-14.2-12.6-2.4-1.9-4.6-3.5-6.8-5 5.2-3.1 9.5-4.7 12.7-4.7 12.9 0 23.3 10.5 23.3 23.3 0 13-10.4 23.4-23.3 23.4zm1.1-26.9c1.7 1.5 3 2.8 3.9 3.6-.9.8-2.2 2.1-3.9 3.6h-9.9v-7.3h9.9zm-9.9-3.2V43l1 .8c1.9 1.5 3.8 3 5.4 4.5-.1-.1-6.4-.1-6.4-.1zm6.3 13.6c-1.7 1.4-3.5 3-5.4 4.5l-1 .8v-5.2h6.4z"/></svg>