<?xml version="1.0" encoding="utf-8"?>
<!-- Generator: Adobe Illustrator 17.1.0, SVG Export Plug-In . SVG Version: 6.00 Build 0)  -->
<!DOCTYPE svg PUBLIC "-//W3C//DTD SVG 1.1//EN" "http://www.w3.org/Graphics/SVG/1.1/DTD/svg11.dtd">
<svg version="1.1" id="Layer_1" xmlns="http://www.w3.org/2000/svg" xmlns:xlink="http://www.w3.org/1999/xlink" x="0px" y="0px"
	 viewBox="0 0 150 150" enable-background="new 0 0 150 150" xml:space="preserve">
<g>
	<path fill="none" d="M105.2,84.8H35.5c0.1,3.7,1,7.5,2.2,10.9L105.2,84.8z"/>
	<polygon fill="none" points="34.1,123.5 72.5,123.5 72.5,125.1 34.1,125.1 34.1,127.2 104.6,127.2 104.6,121.1 34.1,121.1 	"/>
	<path fill="none" d="M104.6,111.7c6.1,0,11.1-4.9,11.1-11.1c0-4.7-3.1-8.9-7.5-10.9c-1.3,7.5-4.8,14.4-10.1,19.9
		C100.1,110.9,102.2,111.7,104.6,111.7z"/>
	<path fill="#F2B350" d="M37.9,96.1c1.4,3.3,3.2,6.6,5.5,9.5l62.4-20.8v0h-0.6L37.7,95.7C37.8,95.8,37.8,96,37.9,96.1z"/>
	<path fill="#E47E26" d="M104.6,89.6c-1.2,0-2.2,0.3-3.3,0.5c-1.5,0.4-2.8,1.1-3.8,2c-0.5,0.4-1,0.9-1.4,1.4
		c-0.4,0.5-0.8,1.1-1.2,1.7c-0.8,1.6-1.3,3.3-1.3,5.3c0,2.6,0.8,5,2.3,7c4.9-4.9,8.1-11.1,9.4-18C105,89.6,104.7,89.6,104.6,89.6z"
		/>
	<path fill="#E47E26" d="M43.7,105.9c0.8,0.8,1.3,1.4,2.1,2.2c6,5.8,13.8,9.5,22.2,10.1h5.2c7.4-0.5,14.4-3.5,20.1-8.3l-0.1-0.1
		c-2-2.4-3.1-5.6-3.1-8.9v-0.1c0.1-8,6.5-14.3,14.4-14.3c0.3,0,0.8,0,1.1,0c0.1-0.4,0.1-0.8,0.1-1.2v-0.1V85c0,0,0,0,0-0.1v-0.1
		l-62.4,20.8C43.5,105.7,43.6,105.8,43.7,105.9z"/>
	<path fill="#020202" d="M104.6,115c7.9,0,14.4-6.5,14.4-14.4c0-6.5-4.2-11.9-10.1-13.8c0.1-1.3,0.1-2.5,0.1-3.8v-1.9H32.6V83
		c0,10.5,4,20,11.1,27.1c3.2,3.2,7,5.8,11.3,7.8H31v12.3h76.9v-12.3H86.6c3.3-1.4,6.5-3.6,9.4-5.9C98.2,114,101.3,115,104.6,115z
		 M95.7,107.6c-1.5-2-2.3-4.4-2.3-7c0-2,0.5-3.7,1.3-5.3c0.4-0.7,0.8-1.2,1.2-1.7c0.4-0.5,0.9-1.1,1.4-1.4c1.1-0.9,2.4-1.6,3.8-2
		c1.1-0.3,2.1-0.5,3.3-0.5c0.1,0,0.4,0,0.5,0C103.8,96.5,100.6,102.7,95.7,107.6z M115.7,100.6c0,6.2-5,11.1-11.1,11.1
		c-2.4,0-4.5-0.8-6.5-2.1c5.3-5.4,8.7-12.3,10.1-19.9C112.6,91.7,115.7,95.9,115.7,100.6z M105.2,84.8h0.6v0v0.1c0,0.1,0,0.1,0,0.1
		v0.1v0.1c0,0.4,0,0.8-0.1,1.2c-0.3,0-0.8,0-1.1,0c-7.9,0-14.3,6.3-14.4,14.3v0.1c0,3.3,1.1,6.5,3.1,8.9l0.1,0.1
		c-5.7,4.8-12.7,7.7-20.1,8.3h-5.2c-8.5-0.5-16.3-4.2-22.2-10.1c-0.8-0.8-1.3-1.4-2.1-2.2c-0.1-0.1-0.2-0.2-0.3-0.3
		c-2.4-2.8-4.2-6.1-5.5-9.5c-0.1-0.1-0.1-0.3-0.2-0.4c-1.2-3.5-2.1-7.2-2.2-10.9H105.2z M104.6,121.1v6.1H34.1v-2.1h38.4v-1.6H34.1
		v-2.4H104.6z"/>
	<path fill="#020202" d="M64.5,77.9c0.3,0.3,0.8,0.4,1.2,0.4s0.9-0.1,1.2-0.4c0.7-0.7,0.7-1.6,0-2.2c-0.3-0.3-8.9-9,2.6-22.1
		c6.9-7,7.1-15.4,4.5-20.7c-2.4-4.6-7-7-12.4-6.1c-0.9,0.1-1.4,0.9-1.3,1.9c-0.2,0.7,0.5,1.3,1.4,1.2c4-0.7,7.3,1.1,9.1,4.5
		c2.2,4.2,1.9,11-3.8,17.1C53.4,66.8,64.4,77.9,64.5,77.9z"/>
	<path fill="#020202" d="M70,23.3c3.7-0.7,7.3,1.6,9.5,5.9c3.2,5.8,3.4,15.2-3.1,22.1c-5,5.7-7.3,11-6.9,16.2
		c0.7,5.4,4.2,8.1,4.4,8.2c0.3,0.1,0.7,0.3,0.9,0.3c0.4,0,0.9-0.1,1.3-0.7c0.7-0.8,0.4-1.6-0.3-2.2c-0.1-0.1-2.6-2.1-3.1-6.1
		c-0.4-4,1.6-8.6,5.9-13.6c7.4-8.1,7-18.9,3.4-25.8c-3.1-5.6-7.8-8.3-13-7.7c-0.9,0.1-1.4,0.9-1.3,1.9C68.2,22.7,69,23.4,70,23.3z"
		/>
</g>
</svg>
