<?xml version="1.0" encoding="utf-8"?>
<!-- Generator: Adobe Illustrator 19.1.0, SVG Export Plug-In . SVG Version: 6.00 Build 0)  -->
<svg version="1.0" id="Layer_1" xmlns="http://www.w3.org/2000/svg" xmlns:xlink="http://www.w3.org/1999/xlink" x="0px" y="0px"
	 viewBox="45 -45 150 150" style="enable-background:new 45 -45 150 150;" xml:space="preserve">
<style type="text/css">
	.st0{fill:#A4D8CE;}
	.st1{fill:#FFDE76;}
</style>
<g>
	<g>
		<path class="st0" d="M137.1-15.4H90.3c-3.1,0-5.7,2.5-5.7,5.7v79.5c0,3.1,2.6,5.7,5.7,5.7h11.5L137.1-15.4z"/>
	</g>
	<g>
		<path class="st1" d="M100.8,68.3c1.9,0,3.2-0.6,4-1.7c0.8-1.2,1.2-3,1.2-5.4V35.7c0-0.7,0.5-1.2,1.2-1.2h6c0.7,0,1.2,0.5,1.2,1.2
			v25.5c0,4.6-1.1,8.2-3.2,10.6c-2.1,2.4-5.3,3.7-9.4,3.7c-1.9,0-5,0-5,0L100.8,68.3z"/>
		<path class="st1" d="M139.6,64.2c0-0.8-0.2-1.5-0.7-2.1c-0.4-0.6-1.1-1.2-1.9-1.8c-0.8-0.6-2.6-1.5-5.2-2.7
			c-2.4-1.1-4.3-2.2-5.5-3.3c-1.2-1.1-2.2-2.3-2.9-3.7c-0.7-1.4-1.1-3-1.1-4.9c0-3.5,1.2-6.3,3.6-8.3c2.4-2,5.7-3,9.9-3
			c2.1,0,4,0.2,5.9,0.7c1.5,0.4,3.1,0.9,4.8,1.6c0.6,0.2,0.9,1,0.7,1.6l-1.8,4.4c-0.2,0.6-0.9,0.9-1.5,0.7c-1.6-0.6-3-1.1-4.2-1.4
			c-1.4-0.3-2.8-0.5-4.1-0.5c-1.6,0-2.8,0.4-3.7,1.1c-0.9,0.7-1.3,1.7-1.3,2.9c0,0.7,0.2,1.4,0.5,1.9c0.3,0.6,0.9,1.1,1.6,1.6
			c0.8,0.5,2.5,1.4,5.4,2.8c3.7,1.8,6.3,3.6,7.7,5.4L139.6,64.2z"/>
	</g>
	<g>
		<path d="M156.3,3.4l-17.4-19.5c-0.8-0.9-2-1.3-3.2-1.3H90.2c-4.3,0-7.8,3.5-7.8,7.8v79.5c0,4.3,3.5,7.8,7.8,7.8h11.3
			c4.8,0,8.5-1.5,11-4.4c2.5-2.8,3.7-6.9,3.7-12V35.7c0-1.8-1.5-3.3-3.3-3.3h-6c-1.8,0-3.3,1.5-3.3,3.3v25.5c0,2.5-0.4,3.7-0.8,4.2
			c-0.1,0.2-0.6,0.8-2.3,0.8c-1.2,0-2.1,0.9-2.1,2.1s0.9,2.1,2.1,2.1c3.2,0,4.9-1.4,5.7-2.6c1.1-1.5,1.6-3.7,1.6-6.6V36.6h4.2v24.6
			c0,4.1-0.9,7.2-2.7,9.2c-1.7,2-4.3,2.9-7.8,2.9H90.2c-2,0-3.6-1.6-3.6-3.6V-9.7c0-2,1.6-3.6,3.6-3.6h45.4c0.1,0,0.2,0,0.2,0.1
			l17.4,19.5c0,0,0.1,0.1,0,0.3c-0.1,0.1-0.2,0.1-0.2,0.1h-17.4c-0.1,0-0.2-0.1-0.2-0.2V-4.4c0-1.2-0.9-2.1-2.1-2.1
			s-2.1,0.9-2.1,2.1V6.5c0,2.5,2,4.4,4.4,4.4h17.4c1.8,0,3.4-1,4.1-2.7C157.9,6.6,157.6,4.7,156.3,3.4z"/>
		<path d="M147.1,34.9c-1.7-0.7-3.4-1.3-5-1.7c-2-0.5-4.2-0.8-6.5-0.8c-4.7,0-8.5,1.2-11.3,3.5c-2.9,2.4-4.3,5.8-4.3,9.9
			c0,2.2,0.4,4.2,1.3,5.9c0.8,1.6,2,3.1,3.4,4.3c1.4,1.2,3.3,2.4,5.9,3.6c3.1,1.5,4.4,2.2,4.9,2.5c0.6,0.4,1.1,0.8,1.4,1.2
			c0.2,0.3,0.3,0.5,0.3,0.9c0,0.9-0.3,1.2-0.6,1.5c-1.2,0.9-4.2,0.9-7.6,0c-1.4-0.4-3-0.9-4.9-1.7c-1-0.4-2.2-0.3-3.1,0.3
			c-0.9,0.6-1.5,1.6-1.5,2.7v2.6c0,1.2,0.9,2.1,2.1,2.1s2.1-0.9,2.1-2.1v-1.2c1.6,0.6,3,1.1,4.2,1.4c2,0.5,3.9,0.8,5.6,0.8
			c2.3,0,4.1-0.5,5.5-1.5c1.1-0.8,2.4-2.2,2.4-4.9c0-1.2-0.4-2.3-1-3.3c-0.6-0.8-1.4-1.6-2.5-2.3c-0.9-0.6-2.7-1.6-5.4-2.9
			c-2.3-1.1-3.9-2.1-5-3c-1-0.9-1.8-1.9-2.4-3.1c-0.6-1.1-0.9-2.4-0.9-3.9c0-2.9,0.9-5.1,2.8-6.7c2-1.7,4.9-2.5,8.5-2.5
			c1.9,0,3.7,0.2,5.4,0.7c1.2,0.3,2.4,0.7,3.7,1.2l-1.1,2.7c-1.4-0.5-2.6-0.9-3.6-1.2c-1.5-0.4-3.1-0.6-4.6-0.6
			c-2.1,0-3.8,0.5-5.1,1.6c-1.3,1.1-2,2.7-2,4.5c0,1.1,0.3,2.2,0.8,3.1c0.5,0.8,1.3,1.5,2.2,2.2c0.5,0.4,1.7,1.1,5.6,3
			c3.4,1.6,5.7,3.2,6.9,4.7c0.7,0.9,2,1.1,2.9,0.4c0.9-0.7,1.1-2,0.4-2.9c-1.6-2.1-4.4-4-8.4-6c-3.5-1.7-4.7-2.4-5.1-2.6
			c-0.6-0.4-0.9-0.8-1.1-1c-0.1-0.2-0.2-0.5-0.2-0.8c0-0.6,0.2-1,0.6-1.3c0.5-0.4,1.2-0.6,2.3-0.6c1.2,0,2.4,0.2,3.6,0.5
			c1,0.3,2.4,0.7,3.9,1.3c1.7,0.6,3.6-0.2,4.2-1.8l1.8-4.4c0.3-0.8,0.3-1.7,0-2.5C148.6,35.8,147.9,35.2,147.1,34.9z"/>
	</g>
</g>
</svg>
