<?xml version="1.0" encoding="utf-8"?>
<!-- Generator: Adobe Illustrator 17.1.0, SVG Export Plug-In . SVG Version: 6.00 Build 0)  -->
<!DOCTYPE svg PUBLIC "-//W3C//DTD SVG 1.1//EN" "http://www.w3.org/Graphics/SVG/1.1/DTD/svg11.dtd">
<svg version="1.1" id="Layer_1" xmlns="http://www.w3.org/2000/svg" xmlns:xlink="http://www.w3.org/1999/xlink" x="0px" y="0px"
	 viewBox="0 0 150 150" enable-background="new 0 0 150 150" xml:space="preserve">
<g>
	<path fill="none" d="M81,80.9c-1.3,1.3-3,2.3-5,2.5c3-0.5,5.5-2.5,6.7-5.1c0-0.1,0.1-0.1,0.1-0.2c0.4-0.9,0.5-1.9,0.5-3
		c0-2.4-1-4.6-2.6-6.1c-1.5-1.4-3.6-2.3-5.8-2.3c-4.6,0-8.4,3.8-8.4,8.4c0,2.3,0.9,4.4,2.4,5.9c1.5,1.5,3.7,2.5,6,2.5
		c0.4,0,0.7,0,1.1-0.1C78,83.2,79.7,82.2,81,80.9z"/>
	<path fill="none" d="M86.1,76.8c-0.8,4.9-4.7,8.8-9.7,9.4v10.3c10.7-0.7,19.3-9.3,20.1-20h-9.9C86.4,76.6,86.3,76.7,86.1,76.8z"/>
	<path fill="none" d="M119.9,69.5l-12.2-2l0-0.1c-0.8-3.6-2.2-7-4.2-10.1l-0.1-0.1l7.2-10l-4.3-4.3l-0.1-0.1l-14.5,15
		c4.2,4.1,6.9,9.6,7.3,15.8h4.9v2.9H99c-0.7,12.2-10.5,21.9-22.6,22.6v4.9h-2.9v-4.9c-6-0.4-11.5-3-15.5-7l-14.6,14.8l0,0l3.7,3.7
		l10-7.2l0.1,0.1c3.1,2,6.5,3.4,10.1,4.2l0.1,0l2,12.2h11l2-12.1l0.1,0c3.6-0.8,7-2.2,10.1-4.2l0.1-0.1l10,7.2l7.8-7.8l-7.2-10
		l0.1-0.1c2-3.1,3.4-6.5,4.2-10.1v-0.1l12.2-2V69.5z"/>
	<path fill="#707C8B" d="M50.9,76.5h-4.9v-2.9H51C51.7,61.4,61.4,51.7,73.6,51v-4.9h2.9l0,4.9c5.9,0.3,11.3,2.9,15.3,6.8l14.5-15
		l-3.4-3.4l-10,7.2l-0.1-0.1c-3.2-2-6.6-3.4-10.1-4.2l-0.1,0l-2-12.2h-11l-2,12.2l-0.1,0c-3.6,0.8-7,2.3-10.1,4.2l-0.1,0.1l-10-7.2
		l-7.8,7.8l7.2,10l-0.1,0.1c-2,3.1-3.4,6.5-4.2,10.1l0,0.1l-12.2,2v11l12.2,2l0,0.1c0.8,3.6,2.2,7,4.2,10.1l0.1,0.1l-7.2,10l4,4
		L58,92.1C53.9,88,51.3,82.5,50.9,76.5z"/>
	<path fill="#72C0A0" d="M76.1,83.4c1.9-0.3,3.7-1.2,5-2.5c0.7-0.8,1.3-1.7,1.7-2.6C81.5,80.9,79,82.9,76.1,83.4z"/>
	<path fill="#72C0A0" d="M86.2,76.5c0,0.1,0,0.2-0.1,0.3c0.2-0.1,0.3-0.2,0.5-0.3H86.2z"/>
	<path fill="#B2DBD2" d="M63.8,76.5L63.8,76.5l-10.3,0c0.4,5.4,2.7,10.2,6.3,13.8c3.6,3.6,8.4,5.9,13.8,6.2V86.2
		C71,85.9,68.7,84.7,67,83C65.3,81.3,64.1,79,63.8,76.5z"/>
	<path fill="#B2DBD2" d="M63.8,73.6c0.7-5.1,4.7-9.1,9.8-9.8V53.5c-10.7,0.7-19.3,9.3-20.1,20.1H63.8z"/>
	<path fill="#B2DBD2" d="M76.4,63.8c2.5,0.3,4.7,1.4,6.4,3.1c1.8,1.7,3.1,4.1,3.4,6.7v0h10.3c-0.4-5.5-2.8-10.4-6.5-14
		c-3.6-3.5-8.3-5.7-13.6-6V63.8z"/>
	<path fill="#12110B" d="M122.7,82.9V67.2L110,65.1c-0.8-2.7-1.9-5.3-3.2-7.7l7.5-10.5l-5.9-5.9l-5.2-5.2l-10.5,7.5
		c-2.5-1.4-5.1-2.5-7.7-3.2l-2.1-12.7H67.2L65,40c-2.7,0.8-5.3,1.9-7.7,3.2l-10.5-7.5L35.7,46.8l7.5,10.5c-1.4,2.5-2.5,5-3.2,7.7
		l-12.7,2.1v15.7L40,85c0.8,2.7,1.9,5.3,3.2,7.7l-7.5,10.5l5.8,5.8l5.4,5.3l10.5-7.5c2.5,1.4,5,2.5,7.7,3.2l2.1,12.7h15.7l2.1-12.7
		c2.7-0.8,5.3-1.9,7.7-3.2l10.5,7.5l11.1-11.1l-7.5-10.5c1.4-2.5,2.5-5,3.2-7.7L122.7,82.9z M107.7,82.7c-0.8,3.6-2.2,7-4.2,10.1
		l-0.1,0.1l7.2,10l-7.8,7.8l-10-7.2l-0.1,0.1c-3.1,2-6.5,3.4-10.1,4.2l-0.1,0l-2,12.1h-11l-2-12.2l-0.1,0c-3.6-0.8-7-2.2-10.1-4.2
		l-0.1-0.1l-10,7.2l-3.7-3.7l0,0l-4-4l7.2-10l-0.1-0.1c-2-3.1-3.4-6.6-4.2-10.1l0-0.1l-12.2-2v-11l12.2-2l0-0.1
		c0.8-3.6,2.2-7,4.2-10.1l0.1-0.1l-7.2-10l7.8-7.8l10,7.2l0.1-0.1c3.2-2,6.6-3.4,10.1-4.2l0.1,0l2-12.2h11l2,12.2l0.1,0
		c3.6,0.8,7,2.2,10.1,4.2l0.1,0.1l10-7.2l3.4,3.4l0.1,0.1l4.3,4.3l-7.2,10l0.1,0.1c2,3.1,3.4,6.6,4.2,10.1l0,0.1l12.2,2v11l-12.2,2
		V82.7z"/>
	<path fill="#12110B" d="M76.4,46.1h-2.9V51C61.4,51.7,51.7,61.4,51,73.6h-4.9v2.9h4.9c0.4,6.1,3,11.6,7.1,15.6
		c4.1,4,9.5,6.6,15.5,7v4.9h2.9v-4.9C88.6,98.3,98.3,88.6,99,76.5h4.9v-2.9H99c-0.4-6.2-3.1-11.8-7.3-15.8c-4-3.9-9.4-6.4-15.3-6.8
		L76.4,46.1z M90,59.6c3.7,3.6,6.1,8.5,6.5,14H86.2v0c-0.3-2.6-1.6-5-3.4-6.7c-1.7-1.6-3.9-2.7-6.4-3.1V53.5
		C81.7,53.9,86.4,56.1,90,59.6z M73.6,96.5c-5.4-0.4-10.2-2.7-13.8-6.2c-3.6-3.6-5.9-8.4-6.3-13.8h10.3v0c0.3,2.5,1.5,4.8,3.2,6.5
		c1.7,1.7,4,2.9,6.6,3.2V96.5z M73.6,53.5v10.3c-5.1,0.7-9.1,4.7-9.8,9.8H53.5C54.2,62.9,62.8,54.2,73.6,53.5z M76,83.4
		c-0.3,0-0.7,0.1-1.1,0.1c-2.3,0-4.5-1-6-2.5c-1.5-1.5-2.4-3.6-2.4-5.9c0-4.6,3.8-8.4,8.4-8.4c2.2,0,4.3,0.9,5.8,2.3
		c1.6,1.5,2.6,3.7,2.6,6.1c0,1.1-0.2,2.1-0.5,3c0,0.1-0.1,0.1-0.1,0.2c-0.4,1-1,1.9-1.7,2.6C79.7,82.2,78,83.2,76,83.4z M76.4,96.5
		V86.2c5-0.6,8.9-4.5,9.7-9.4c0-0.1,0-0.2,0.1-0.3h0.4h9.9C95.8,87.2,87.2,95.8,76.4,96.5z"/>
</g>
</svg>
