<?xml version="1.0" encoding="utf-8"?>
<!-- Generator: Adobe Illustrator 18.1.1, SVG Export Plug-In . SVG Version: 6.00 Build 0)  -->
<svg version="1.1" id="Layer_1" xmlns="http://www.w3.org/2000/svg" xmlns:xlink="http://www.w3.org/1999/xlink" x="0px" y="0px"
	 viewBox="0 0 150 150" enable-background="new 0 0 150 150" xml:space="preserve">
<g>
	<path fill="#387CB5" d="M66.7,78.3V121c0,0.8,1.1,1.1,1.5,0.3l6.5-13.5l7.4,13.5c0.4,0.8,1.5,0.5,1.5-0.3V78.3H66.7z"/>
	<path fill="#FFDE4F" d="M102,29.9c-1-1-2.5-1.6-4-1.6H75.5H75H52.5c-1.5,0-2.9,0.6-4,1.6l-6.3,6.3c0,0,24.5,23.4,24.5,24.9
		l-0.1,17.2h16.6l0-17.5c0-1.5,25-24.7,25-24.7L102,29.9z"/>
	<path d="M117.1,42.7l-6.4-6.6l0,0l-4.2-4.3v0.1l-3.3-3.3c-1.4-1.4-3.2-2.2-5.2-2.2H75H52c-2,0-3.8,0.8-5.2,2.2l-3.3,3.3v-0.1
		l-3,3.1l-1.2,1.2l0,0l-6.4,6.6c-1.3,1.4-2.1,3.2-2.1,5.1V58c0,2.8,1.6,5.3,4.1,6.6l2.7,1.3l27.4,29.6V121c0,1.2,0.8,2.2,2,2.5
		c0.2,0,0.4,0.1,0.6,0.1c1,0,1.9-0.5,2.3-1.4l5.2-10.9l5.2,10.9c0.4,0.9,1.3,1.4,2.3,1.4c0.2,0,0.4,0,0.6-0.1c1.2-0.3,2-1.3,2-2.5
		V95.5l27.4-29.6l2.7-1.3c2.5-1.2,4.1-3.8,4.1-6.6V47.9C119.2,45.9,118.4,44.1,117.1,42.7z M34.3,58V47.9c0-1,0.4-2,1.1-2.7l4.6-4.7
		v11.6c0,3.8,3.1,6.9,6.9,6.9h6.9c1,0,1.8-0.8,1.8-1.8s-0.8-1.8-1.8-1.8h-6.9c-1.9,0-3.4-1.5-3.4-3.4V40.4l20.3,20.3
		c0.7,0.7,1.1,1.7,1.1,2.7v12.1L36.5,61.4C35.1,60.8,34.3,59.5,34.3,58z M46.3,70.2l18.6,9.2v10.9L46.3,70.2z M68.4,116.8V80.1h4.8
		v26.6L68.4,116.8z M81.6,116.8l-4.8-10.1V80.1h4.8V116.8z M81.6,76.6h-4.8h-3.5h-4.8V63.4c0-2-0.8-3.8-2.2-5.2L44.2,36.2l5.1-5.1
		C50,30.4,51,30,52,30h23h23c1,0,2,0.4,2.7,1.1l5.1,5.1L83.7,58.2c-1.4,1.4-2.2,3.2-2.2,5.2V76.6z M85.1,90.3V79.4l18.6-9.2
		L85.1,90.3z M115.7,58c0,1.5-0.8,2.8-2.1,3.4L85.1,75.5V63.4c0-1,0.4-2,1.1-2.7l20.3-20.3v11.7c0,1.9-1.5,3.4-3.4,3.4h-6.9
		c-1,0-1.8,0.8-1.8,1.8s0.8,1.8,1.8,1.8h6.9c3.8,0,6.9-3.1,6.9-6.9V40.5l4.6,4.7c0.7,0.7,1.1,1.7,1.1,2.7V58z"/>
</g>
</svg>
