<?xml version="1.0" encoding="utf-8"?>
<!-- Generator: Adobe Illustrator 17.1.0, SVG Export Plug-In . SVG Version: 6.00 Build 0)  -->
<!DOCTYPE svg PUBLIC "-//W3C//DTD SVG 1.1//EN" "http://www.w3.org/Graphics/SVG/1.1/DTD/svg11.dtd">
<svg version="1.1" id="Layer_1" xmlns="http://www.w3.org/2000/svg" xmlns:xlink="http://www.w3.org/1999/xlink" x="0px" y="0px"
	 viewBox="0 0 150 150" enable-background="new 0 0 150 150" xml:space="preserve">
<g>
	<path fill="#673693" d="M85.3,66.6c0-18.5-15.1-33.5-33.6-33.5H33.5c0,2.6,0,5.1,0,7.7l51.8,27.8V66.6z"/>
	<path fill="#ADA8D2" d="M85.3,69.2v-0.6L33.5,40.8c0,0.2,0,0.4,0,0.6c0,0.3,0,0.5,0,0.8c0,0.1,0,0.2,0,0.4l51.8,49.8V92V69.2z"/>
	<path d="M112.5,88c-4.4-0.2-9.3,2.7-9.5,8.4c-0.1,2.7-1.6,5-4,6.2c-2.2,1.1-4.6,1-6.6-0.4c-2.6-1.7-3.1-4.3-3.1-8.4V66.6
		c0-20.6-16.8-37.4-37.6-37.4H29.5v2c0,6.8,0,13.5,0,20.3v1.1c0,4.9,0,10,2.2,14.9c0.4,1,1.6,1.4,2.6,1c1-0.4,1.4-1.6,1-2.6
		c-1.9-4.2-1.9-8.6-1.9-13.3v-1.1c0-3,0-5.9,0-8.9c0-0.1,0-0.2,0-0.4c0-0.3,0-0.6,0-0.8c0-0.2,0-0.4,0-0.6c0-2.6,0-5.1,0-7.7h18.2
		c18.5,0,33.6,15,33.6,33.5v2v0.6V92v0.3v1.6c0,4.4,0.6,8.8,4.9,11.7c3.2,2.1,7.2,2.4,10.6,0.6c3.6-1.8,6-5.5,6.1-9.6
		c0.2-3.4,2.9-4.8,5.4-4.7c0.7,0,4.4,0.4,4.2,4.5c-0.5,10.5-7.7,18.8-17.4,20.2c-9.6,1.4-18.9-4.2-22.2-13.2
		c-0.8-2.2-1.2-4.3-1.3-6.9v-0.3c-0.4-5.5-2.4-9.7-6.1-12.9c-3.6-3.1-8.9-5-14.1-5c0,0-0.1,0-0.1,0c-1.1,0-2,0.9-2,2s0.9,2,2,2
		c0,0,0.1,0,0.1,0c4.3,0,8.7,1.5,11.6,4c2.9,2.4,4.4,5.8,4.8,10.1v0.2c0.1,3.1,0.6,5.5,1.5,8.1c3.5,9.7,12.8,16.1,22.9,16.1
		c1.2,0,2.4-0.1,3.5-0.2c11.6-1.7,20.2-11.5,20.8-23.9C120.6,92.7,118.2,88.3,112.5,88z"/>
</g>
</svg>
