<?xml version="1.0" encoding="utf-8"?>
<!-- Generator: Adobe Illustrator 17.1.0, SVG Export Plug-In . SVG Version: 6.00 Build 0)  -->
<!DOCTYPE svg PUBLIC "-//W3C//DTD SVG 1.1//EN" "http://www.w3.org/Graphics/SVG/1.1/DTD/svg11.dtd">
<svg version="1.1" id="Layer_1" xmlns="http://www.w3.org/2000/svg" xmlns:xlink="http://www.w3.org/1999/xlink" x="0px" y="0px"
	 viewBox="0 0 150 150" enable-background="new 0 0 150 150" xml:space="preserve">
<g>
	<polygon fill="none" points="46.1,86.7 36.1,81.9 36.1,82 46.1,86.8 	"/>
	<path fill="none" d="M46.1,54c0-0.1,0-0.3,0-0.4c0,0,0,0,0,0c0,0,0,0,0,0c0-1.1,0.9-2,2-2h12.1V40.8H22v10.8h12.1
		c1.1,0,1.9,0.8,2,1.9c0,0,0,0,0,0c0,0,0,0,0,0c0,0,0,0,0,0c0,0,0,0,0,0c0,0.1,0.1,0.3,0.1,0.5v9.9l10,6.8V54z"/>
	<path fill="none" d="M88.1,106.9l9.5,4.6c0,0,0,0,0,0L88.1,106.9L88.1,106.9z"/>
	<path fill="none" d="M115.2,36.1c-0.4-0.2-0.9-0.3-1.4-0.3c-1.3,0-2.4,0.7-3,1.9c-0.4,0.8-0.4,1.7-0.1,2.5c0.3,0.8,0.9,1.5,1.7,1.9
		c0.4,0.2,0.9,0.3,1.4,0.3c1.3,0,2.4-0.7,3-1.9C117.5,38.9,116.8,36.9,115.2,36.1z"/>
	<polygon fill="#F2B350" points="46.1,70.7 36.1,63.9 36.1,81.9 46.1,86.7 	"/>
	<path fill="#F2B350" d="M88.1,106.9l9.5,4.6c0.9-1.3,1.8-2.7,2.5-4.1l-8.4-5.7c-0.5,1.1-1,2-1.7,2.9
		C89.5,105.4,88.8,106.2,88.1,106.9z"/>
	<path fill="#59ABE3" d="M74.1,129.6c0.2,0,0.4,0,0.6-0.1c-0.2,0-0.4,0-0.5,0.1C74.2,129.6,74.2,129.6,74.1,129.6z"/>
	<path fill="#59ABE3" d="M72.6,129.7c-0.2,0-0.4,0-0.5,0C72.3,129.8,72.4,129.8,72.6,129.7z"/>
	<path fill="#59ABE3" d="M81.7,128c0.3-0.1,0.7-0.2,1-0.3c-0.1,0-0.2,0.1-0.3,0.1C82.2,127.8,82,127.9,81.7,128z"/>
	<path fill="#59ABE3" d="M87.9,107.1c-0.9,0.9-1.8,1.7-2.7,2.4c-4.2,3.3-9.2,5.5-14.8,5.5c-13.3,0-24.1-11.2-24.2-25.1v-0.1
		c0,0,0-0.1,0-0.1c0-0.1,0-0.2,0-0.2v-2.8l-10-4.8v7.6c0,0.1,0,0.1,0,0.2c0,0,0,0,0,0c0,0.1,0,0.2,0,0.3c0,19.7,15.3,35.8,34.2,35.8
		c0.2,0,0.4,0,0.5,0c10-0.2,19-4.9,25.2-12.2c0.5-0.7,1.1-1.3,1.6-2l-9.5-4.6C88,107,87.9,107.1,87.9,107.1z"/>
	<path fill="#59ABE3" d="M78.6,128.9C78.6,128.9,78.6,128.9,78.6,128.9c0.8-0.2,1.5-0.4,2.3-0.6c-0.1,0-0.2,0.1-0.3,0.1
		C79.9,128.6,79.3,128.7,78.6,128.9z"/>
	<path fill="#59ABE3" d="M84.3,127.1c0.1,0,0.2-0.1,0.3-0.1c-0.1,0-0.1,0-0.2,0.1C84.3,127,84.3,127,84.3,127.1z"/>
	<path fill="#59ABE3" d="M76.8,129.2c-0.2,0-0.3,0.1-0.5,0.1C76.5,129.3,76.7,129.3,76.8,129.2z"/>
	<path fill="#59ABE3" d="M86.2,126.2C86.2,126.2,86.2,126.2,86.2,126.2c0.8-0.4,1.7-0.8,2.5-1.3c-0.2,0.1-0.5,0.3-0.7,0.4
		C87.4,125.6,86.8,125.9,86.2,126.2z"/>
	<path fill="#59ABE3" d="M94.8,120.5c1-0.8,1.9-1.7,2.8-2.7C96.7,118.8,95.8,119.7,94.8,120.5z"/>
	<path fill="#59ABE3" d="M98.9,116.4c0,0,0.1-0.1,0.1-0.2c-0.4,0.5-0.9,1-1.3,1.5C98.1,117.3,98.5,116.9,98.9,116.4z"/>
	<path d="M114.1,51.9h-7.6c-0.9,0-1.6,0.5-1.9,1.3c-0.1,0.2-0.2,0.5-0.2,0.8v35.6c0,0.1,0,0.1,0,0.2c0,0,0,0,0,0c0,0,0,0,0,0
		c0,0,0,0.1,0,0.1c0,1.3-0.1,2.5-0.2,3.8c-0.3,3.5-1.2,6.9-2.5,10.1c-0.5,1.2-1,2.4-1.6,3.5c-0.8,1.4-1.6,2.8-2.5,4.1c0,0,0,0,0,0
		c-0.5,0.7-1,1.4-1.6,2c-6.2,7.4-15.2,12.1-25.2,12.2c-0.2,0-0.3,0-0.5,0c-18.8,0-34.2-16-34.2-35.8c0-0.1,0-0.2,0-0.3c0,0,0,0,0,0
		c0-0.1,0-0.1,0-0.2V82v0V63.9V54c0-0.2,0-0.3-0.1-0.5c0,0,0,0,0,0c0,0,0,0,0,0c0,0,0,0,0,0c0,0,0,0,0,0c-0.1-1-0.9-1.9-2-1.9H22
		V40.8h38.2v10.8H48.2c-1.1,0-2,0.9-2,2c0,0,0,0,0,0c0,0,0,0,0,0c0,0.1,0,0.2,0,0.4v16.7v16.1v0v2.8c0,0.1,0,0.2,0,0.2
		c0,0,0,0.1,0,0.1V90c0.1,13.8,10.9,25.1,24.2,25.1c5.6,0,10.6-2.2,14.8-5.5c1-0.8,1.9-1.6,2.7-2.4c0.1-0.1,0.1-0.1,0.2-0.2l0,0
		c0.7-0.7,1.4-1.5,2-2.3c0.6-0.9,1.2-1.8,1.7-2.9c0.3-0.7,0.6-1.4,0.8-2.1c0.5-1.5,0.9-3,1.3-4.6c0.4-1.6,0.6-3.3,0.6-5.1
		c0-0.1,0-0.1,0-0.2c0,0,0,0,0,0v0c0,0,0,0,0,0V54c0-0.2,0-0.4-0.1-0.5c-0.1-1-0.9-1.9-2-1.9H80.4V40.9h15.2c1.1,0,1.9-0.8,2-1.8h0
		c0,0,0,0,0,0c0-0.1,0-0.1,0-0.2c0-1.1-0.9-2-2-2H78.7c-0.4,0-0.7,0.1-1,0.3c-0.8,0.3-1.3,1-1.3,1.9v14.5c0,0.8,0.5,1.6,1.2,1.9
		c0.3,0.2,0.6,0.3,1,0.3h11.9v33.9c0,0,0,0.1,0,0.1c0,0,0,0,0,0v0c0,0,0,0,0,0c0,0,0,0,0,0v0.1c0,0.9,0,1.8-0.2,2.6
		c-0.2,1.9-0.7,3.7-1.3,5.3c-0.2,0.5-0.4,1-0.6,1.5c-0.4,0.9-0.9,1.7-1.4,2.5c-0.8,1.2-1.7,2.3-2.6,3.2l0,0
		c-0.1,0.1-0.2,0.2-0.3,0.3c-0.2,0.2-0.5,0.4-0.7,0.6c-0.2,0.2-0.5,0.4-0.7,0.6c0,0,0,0-0.1,0.1c-0.2,0.2-0.5,0.4-0.7,0.5
		c-0.2,0.1-0.4,0.3-0.6,0.4v0c0,0-0.1,0-0.1,0.1c-1,0.7-2.1,1.3-3.2,1.8c-0.2,0.1-0.5,0.2-0.7,0.3c-0.5,0.2-0.9,0.3-1.4,0.5
		c-0.5,0.2-1,0.3-1.5,0.4c-0.4,0.1-0.8,0.1-1.1,0.2c-0.3,0.1-0.6,0.1-0.9,0.1c-0.6,0.1-1.3,0.1-2,0.1c-3.1,0-6.1-0.8-8.7-2.1
		c-0.3-0.1-0.6-0.3-0.9-0.5c-0.6-0.3-1.1-0.7-1.7-1.1c-0.3-0.2-0.5-0.4-0.8-0.6c-0.3-0.2-0.5-0.4-0.8-0.6c-0.5-0.4-1-0.9-1.4-1.3
		c0,0,0,0,0,0c-1.1-1.2-2.1-2.5-2.9-3.9c0,0,0-0.1,0-0.1c-0.2-0.3-0.3-0.6-0.5-0.9c-0.2-0.3-0.3-0.6-0.5-0.9
		c-0.3-0.7-0.6-1.4-0.9-2.2c-0.1-0.2-0.2-0.5-0.2-0.7c-0.2-0.7-0.4-1.3-0.5-2c-0.1-0.6-0.2-1.3-0.3-1.9c0,0,0-0.1,0-0.1
		c0-0.1,0-0.3,0-0.4c0-0.2,0-0.5,0-0.7c0-0.3,0-0.6,0-0.9v-0.2c0-0.1,0-0.2,0-0.2c0,0,0-0.1,0-0.1v-0.8v0V73.4V55.6h11.9
		c0.3,0,0.7-0.1,1-0.3c0.7-0.3,1.2-1,1.2-1.9V39c0,0,0,0,0,0c0-0.1,0-0.1,0-0.2c0-1.1-0.9-2-2-2H20.4c-0.4,0-0.7,0.1-1,0.3
		c-0.8,0.3-1.3,1-1.3,1.9v14.5c0,0.8,0.5,1.6,1.2,1.9c0.3,0.2,0.6,0.3,1,0.3h11.9v5.5V80v0v9.5c0,0.1,0,0.2,0,0.3v0c0,0,0,0.1,0,0.2
		c0,3.1,0.3,6.1,1,9c3.4,15.4,15.5,27.5,30.6,30.2c2.1,0.4,4.3,0.6,6.6,0.6c0.5,0,1,0,1.6,0c0.1,0,0.1,0,0.2,0c0.2,0,0.4,0,0.5,0
		c0,0,0,0,0.1,0c0.3,0,0.6,0,0.8-0.1c0.2,0,0.4,0,0.6-0.1c0,0,0.1,0,0.1,0c0.2,0,0.4,0,0.5-0.1c0.1,0,0.2,0,0.4,0
		c0.3,0,0.7-0.1,1-0.2c0.1,0,0.1,0,0.2,0c0.2,0,0.3-0.1,0.5-0.1c0.2,0,0.3,0,0.5-0.1c0.2,0,0.5-0.1,0.7-0.1c0.2,0,0.4-0.1,0.5-0.1
		c0,0,0,0,0,0c0.7-0.1,1.3-0.3,2-0.5c0.1,0,0.2-0.1,0.3-0.1c0.1,0,0.2-0.1,0.3-0.1c0.2-0.1,0.4-0.1,0.5-0.2c0.3-0.1,0.5-0.2,0.8-0.3
		c0.1,0,0.2-0.1,0.3-0.1c0.2-0.1,0.3-0.1,0.5-0.2c0.1,0,0.2-0.1,0.3-0.1c0.2-0.1,0.5-0.2,0.7-0.3c0,0,0.1,0,0.1,0
		c0.1,0,0.1,0,0.2-0.1c0.3-0.1,0.5-0.2,0.8-0.3c0.3-0.1,0.6-0.3,0.9-0.4c0,0,0,0,0,0c0.6-0.3,1.2-0.6,1.8-0.9
		c0.2-0.1,0.5-0.3,0.7-0.4c1-0.5,1.9-1.1,2.8-1.8c0.5-0.3,1-0.7,1.5-1.1c0.6-0.5,1.3-1,1.9-1.5c1-0.8,1.9-1.7,2.8-2.7
		c0,0,0.1-0.1,0.1-0.1c0.4-0.5,0.9-1,1.3-1.5c0.3-0.4,0.6-0.8,0.9-1.1c0.1-0.1,0.2-0.3,0.3-0.4c0.4-0.5,0.7-0.9,1-1.4c0,0,0,0,0,0
		c0.7-1.1,1.4-2.1,2-3.3c0.1-0.1,0.1-0.2,0.2-0.4c0.7-1.3,1.4-2.7,1.9-4.1c1.3-3.1,2.2-6.5,2.7-10c0.3-1.8,0.4-3.7,0.4-5.5
		c0-0.1,0-0.1,0-0.2c0,0,0,0,0,0v0c0,0,0,0,0,0c0,0,0-0.1,0-0.1V55.9h5.6c1.1,0,2-0.9,2-2S115.2,51.9,114.1,51.9z"/>
	<path fill="#13110C" d="M130.8,39.8l-2.9-1.7c0-0.5,0-1-0.1-1.4l2.8-2.1c0.9-0.7,1.2-2,0.7-3l-1.3-2.8c-0.3-0.6-0.8-1-1.4-1.3
		c-0.3-0.1-0.5-0.1-0.8-0.1c-0.2,0-0.4,0-0.6,0.1l-3.3,0.8c-0.3-0.3-0.6-0.6-1-0.9l0.5-3.4c0.2-1.2-0.5-2.3-1.6-2.7l-2.9-1
		c-0.3-0.1-0.5-0.1-0.8-0.1h0c-0.9,0-1.7,0.5-2.1,1.2l-1.7,2.9h0c-0.5,0-1,0-1.4,0.1l-2.1-2.8c-0.3-0.4-0.7-0.7-1.1-0.8
		c-0.3-0.1-0.5-0.1-0.8-0.1c-0.4,0-0.7,0.1-1.1,0.2l-2.8,1.3c-1,0.5-1.6,1.7-1.3,2.8l0.9,3.3c-0.3,0.3-0.6,0.6-0.9,1L100,29
		c-0.1,0-0.2,0-0.4,0c-1,0-2,0.7-2.3,1.7l-0.5,1.5l-0.1,0.2l0,0c-0.1,0.6,0.3,1.2,0.9,1.4c0.1,0.1,0.3,0.1,0.5,0.1
		c0.6,0,1.1-0.4,1.3-0.9c0-0.1,0-0.1,0.1-0.2l0.3-1l3.3,0.5c0.1,0,0.2,0,0.3,0c0.8,0,1.5-0.3,1.9-0.9c0.3-0.4,0.6-0.7,0.9-1
		c0.6-0.6,0.9-1.5,0.7-2.4l-0.8-3.3l2.5-1.2l2,2.7c0.3,0.4,0.7,0.7,1.1,0.8c0.3,0.1,0.5,0.1,0.8,0.1c0.1,0,0.2,0,0.3,0
		c0.4,0,0.8-0.1,1.2-0.1l0.1,0c0,0,0,0,0,0c0.9,0,1.7-0.5,2.1-1.2l1.7-2.9l2.6,0.9l-0.5,3.3c-0.1,0.9,0.2,1.7,0.9,2.3
		c0.3,0.2,0.6,0.5,1,0.9c0.2,0.3,0.6,0.5,0.9,0.6c0.3,0.1,0.5,0.1,0.8,0.1c0.2,0,0.4,0,0.6-0.1l3.3-0.8l1.2,2.5l-2.7,2
		c-0.7,0.5-1.1,1.4-1,2.3c0.1,0.4,0.1,0.8,0.1,1.3c0,0.9,0.5,1.7,1.2,2.1l2.9,1.7l-0.9,2.6l-3.3-0.5c-0.1,0-0.2,0-0.3,0
		c-0.8,0-1.5,0.3-1.9,0.9c-0.2,0.3-0.5,0.6-0.9,1c-0.6,0.6-0.9,1.5-0.7,2.4l0.8,3.3l-1.2,0.6c-0.4,0.1-0.6,0.4-0.8,0.8
		c-0.3,0.7,0.1,1.5,0.8,1.7c0.1,0,0.3,0.1,0.4,0.1c0.2,0,0.5-0.1,0.7-0.2l1.3-0.6c1-0.5,1.6-1.7,1.3-2.8l-0.8-3.3
		c0.3-0.3,0.6-0.6,0.9-1l3.4,0.5c0.1,0,0.2,0,0.3,0c1.1,0,2-0.7,2.3-1.7l1-2.9C132.3,41.6,131.8,40.4,130.8,39.8z"/>
	<path fill="#13110C" d="M116.3,33.8c-0.8-0.4-1.7-0.6-2.5-0.6c-2.2,0-4.3,1.3-5.3,3.3c-0.7,1.4-0.8,3-0.2,4.5
		c0.5,1.5,1.6,2.7,3,3.3c0.8,0.4,1.7,0.6,2.5,0.6c2.2,0,4.3-1.3,5.3-3.3c0.7-1.4,0.8-3,0.2-4.5C118.7,35.7,117.7,34.5,116.3,33.8z
		 M116.7,40.5c-0.5,1.1-1.7,1.9-3,1.9c-0.5,0-1-0.1-1.4-0.3c-0.8-0.4-1.4-1-1.7-1.9c-0.3-0.8-0.2-1.7,0.1-2.5c0.5-1.1,1.7-1.9,3-1.9
		c0.5,0,1,0.1,1.4,0.3C116.8,36.9,117.5,38.9,116.7,40.5z"/>
</g>
</svg>
