<?xml version="1.0" encoding="utf-8"?>
<!-- Generator: Adobe Illustrator 19.1.0, SVG Export Plug-In . SVG Version: 6.00 Build 0)  -->
<svg version="1.1" id="Layer_1" xmlns="http://www.w3.org/2000/svg" xmlns:xlink="http://www.w3.org/1999/xlink" x="0px" y="0px"
	 viewBox="-345 520.5 150 150" style="enable-background:new -345 520.5 150 150;" xml:space="preserve">
<style type="text/css">
	.st0{fill:#FF6464;}
	.st1{fill:#707C8B;}
</style>
<g>
	<g>
		<path class="st0" d="M-296.5,641.3c-2.6,0-4.7-2.1-4.7-4.7v-35.2h31.3L-296.5,641.3z"/>
	</g>
	<g>
		<path class="st1" d="M-301.2,601.4v-46.9c0-2.6,2.1-4.7,4.7-4.7h53.1c2.6,0,4.7,2.1,4.7,4.7l-31.2,46.9L-301.2,601.4z"/>
	</g>
	<g>
		<path d="M-283.6,630.6c0,2.2,1.8,3.8,3.8,3.8c2,0,3.8-1.6,3.8-3.8s-1.6-3.8-3.8-3.8C-281.9,626.8-283.6,628.4-283.6,630.6z
			 M-277.9,630.7c0,1.1-0.8,1.9-1.9,1.9s-1.9-0.8-1.9-1.9s1-1.9,1.9-1.9C-278.9,628.8-277.9,629.6-277.9,630.7z"/>
		<path d="M-269.7,626.8c-2,0-3.8,1.6-3.8,3.8c0,2.2,1.8,3.8,3.8,3.8c2,0,3.8-1.6,3.8-3.8S-267.6,626.8-269.7,626.8z M-269.7,632.6
			c-1.1,0-1.9-0.8-1.9-1.9s1-1.9,1.9-1.9c1,0,1.9,0.8,1.9,1.9S-268.7,632.6-269.7,632.6z"/>
		<path d="M-259.7,626.8c-2,0-3.8,1.6-3.8,3.8c0,2.2,1.8,3.8,3.8,3.8c2,0,3.8-1.6,3.8-3.8S-257.5,626.8-259.7,626.8z M-259.7,632.6
			c-1.1,0-1.9-0.8-1.9-1.9s1-1.9,1.9-1.9c1,0,1.9,0.8,1.9,1.9S-258.6,632.6-259.7,632.6z"/>
		<path d="M-243.4,548h-53.1c-3.6,0-6.5,2.9-6.5,6.5v82.1c0,3.6,2.9,6.5,6.5,6.5h26.7c1,0,1.8-0.8,1.8-1.8s-0.8-1.8-1.8-1.8h-26.7
			c-1.6,0-3-1.3-3-3v-33.4h59v18.2c0,1,0.8,1.8,1.8,1.8s1.8-0.8,1.8-1.8v-66.8C-236.9,550.9-239.8,548-243.4,548z M-299.5,569.4h59
			v13.3h-59V569.4z M-296.5,551.5h53.1c1.6,0,3,1.3,3,3v11.4h-59v-11.4C-299.5,552.9-298.1,551.5-296.5,551.5z M-299.5,599.7v-13.5
			h59v13.5H-299.5z"/>
		<path d="M-253.4,591.3h-33.1c-1,0-1.8,0.8-1.8,1.8s0.8,1.8,1.8,1.8h33.1c1,0,1.8-0.8,1.8-1.8S-252.4,591.3-253.4,591.3z"/>
		<path d="M-253.4,574.3h-33.1c-1,0-1.8,0.8-1.8,1.8s0.8,1.8,1.8,1.8h33.1c1,0,1.8-0.8,1.8-1.8S-252.4,574.3-253.4,574.3z"/>
		<path d="M-286.5,560.5h33.1c1,0,1.8-0.8,1.8-1.8s-0.8-1.8-1.8-1.8h-33.1c-1,0-1.8,0.8-1.8,1.8S-287.5,560.5-286.5,560.5z"/>
	</g>
</g>
</svg>
