<?xml version="1.0" encoding="utf-8"?>
<!-- Generator: Adobe Illustrator 17.1.0, SVG Export Plug-In . SVG Version: 6.00 Build 0)  -->
<!DOCTYPE svg PUBLIC "-//W3C//DTD SVG 1.1//EN" "http://www.w3.org/Graphics/SVG/1.1/DTD/svg11.dtd">
<svg version="1.1" id="Layer_1" xmlns="http://www.w3.org/2000/svg" xmlns:xlink="http://www.w3.org/1999/xlink" x="0px" y="0px"
	 viewBox="0 0 150 150" enable-background="new 0 0 150 150" xml:space="preserve">
<g>
	<path fill="none" d="M86.9,37.3c3.1-3.7,4.8-8.4,4.8-12.7c-4.1,0.7-8.7,3.3-11.5,6.7c-2.5,2.8-5,7.6-4.9,12.4
		C79.3,43.5,83.8,41,86.9,37.3z"/>
	<path fill="#89C87C" d="M91.3,52.6c-3.3-0.1-6.6,1.3-9.5,2.4c-2.6,1-4.8,1.9-6.8,1.9c-2.1,0-4.3-0.9-6.8-1.9
		c-2.9-1.2-6.2-2.5-9.5-2.4c-7.6,0.1-14.9,4.5-18.9,11.5c-5,8.7-5.4,20.7-2.9,31.4l72-33.5C104.7,56.3,98.2,52.7,91.3,52.6z"/>
	<path fill="#22B473" d="M110.2,64.1c-0.4-0.7-0.8-1.3-1.2-1.9c0,0,0-0.1-0.1-0.1l-72,33.5c0,0,0,0.1,0,0.1c1.5,6.6,4,12.6,7.3,17.3
		c0,0,0.1,0.1,0.1,0.1c0,0.1,0.1,0.1,0.2,0.2l66.8-47.1c0-0.1-0.1-0.2-0.1-0.3C110.8,65.2,110.5,64.6,110.2,64.1z"/>
	<path d="M113.5,62.2c-4.7-8.2-13.2-13.3-22.1-13.4c-4-0.1-7.7,1.4-10.9,2.7c-2.1,0.8-4.1,1.6-5.4,1.6s-3.3-0.8-5.4-1.6
		c-3.3-1.3-7-2.8-10.9-2.7c-9,0.1-17.5,5.3-22.1,13.4c-9,15.7-4.7,39.7,4.5,53c2.5,3.6,6.5,7,11.4,9.5c5.8,3,12.5,4.6,19.3,4.6
		c1,0,1.9-0.9,1.9-1.9s-0.9-1.9-1.9-1.9c-14.6,0-23.9-7.5-27.3-12.2c0-0.1-0.1-0.1-0.2-0.2c0,0-0.1-0.1-0.1-0.1
		c-3.3-4.7-5.8-10.8-7.3-17.3c0,0,0-0.1,0-0.1c-2.5-10.8-2-22.8,2.9-31.4c4-7,11.2-11.4,18.9-11.5c3.2-0.1,6.6,1.2,9.5,2.4
		c2.6,1,4.8,1.9,6.8,1.9c2,0,4.3-0.9,6.8-1.9c2.9-1.1,6.2-2.5,9.5-2.4c6.9,0.1,13.4,3.7,17.6,9.5c0,0,0,0.1,0.1,0.1
		c0.4,0.6,0.8,1.3,1.2,1.9c0.3,0.6,0.6,1.2,0.9,1.8c0,0.1,0.1,0.2,0.1,0.3c6.5,14,2.7,35-5.4,46.8c-0.6,0.9-0.4,2.1,0.5,2.7
		c0.3,0.2,0.7,0.3,1.1,0.3c0.6,0,1.2-0.3,1.6-0.8C118.2,101.9,122.5,77.9,113.5,62.2z"/>
	<path d="M71.9,47.1l1.4,0.1c0.4,0,0.8,0.1,1.1,0.1c5.4,0,11.2-3,15.1-7.7c4.1-5,6.2-11.4,5.5-17.2l-0.2-1.6l-1.7,0.1
		c-5.4,0.2-12,3.6-15.9,8.1c-3.3,3.8-6.5,10.2-5.7,16.7L71.9,47.1z M80.1,31.3c2.8-3.3,7.5-5.9,11.5-6.7c0,4.3-1.8,9-4.8,12.7
		c-3.1,3.7-7.6,6.1-11.7,6.4C75.1,38.9,77.7,34.1,80.1,31.3z"/>
</g>
</svg>
