<?xml version="1.0" encoding="utf-8"?>
<!-- Generator: Adobe Illustrator 17.1.0, SVG Export Plug-In . SVG Version: 6.00 Build 0)  -->
<!DOCTYPE svg PUBLIC "-//W3C//DTD SVG 1.1//EN" "http://www.w3.org/Graphics/SVG/1.1/DTD/svg11.dtd">
<svg version="1.1" id="Layer_1" xmlns="http://www.w3.org/2000/svg" xmlns:xlink="http://www.w3.org/1999/xlink" x="0px" y="0px"
	 viewBox="0 0 150 150" enable-background="new 0 0 150 150" xml:space="preserve">
<g>
	<polygon fill="none" points="86.7,48 87,46.8 74.9,43.9 61.1,102.9 	"/>
	<path fill="#F29200" d="M58.9,111.9l1,3.6c0.8-0.3,1.8-0.6,2.9-0.6c1.5,0,3.5,0.5,5.3,2.5l2.9-3.2L86.7,48l-25.6,54.9L58.9,111.9z"
		/>
	<path fill="#61BDAA" d="M89.6,36.7l1.9-8c0.3-1.2-0.5-2.4-1.6-2.6l-7.8-1.8c-0.6-0.1-1.2,0-1.7,0.3c-0.5,0.3-0.8,0.8-1,1.4
		l-1.9,8.1c-0.2,0.9-0.9,1.5-1.8,1.6l15,3.6C89.9,38.6,89.4,37.7,89.6,36.7z"/>
	<path fill="#12100B" d="M90.8,22.1L83,20.3c-1.6-0.4-3.3-0.1-4.8,0.8c-1.4,0.9-2.4,2.3-2.8,3.9l-1.9,8c-0.2,1.1,0.4,2.2,1.5,2.5
		c0.2,0.1,0.5,0.1,0.7,0c0.9-0.1,1.6-0.7,1.8-1.6l1.9-8.1c0.1-0.6,0.5-1.1,1-1.4c0.5-0.3,1.1-0.4,1.7-0.3l7.8,1.8
		c1.2,0.3,1.9,1.5,1.6,2.6l-1.9,8c-0.2,1,0.3,1.9,1.1,2.3c0.1,0.1,0.3,0.1,0.4,0.2c0.2,0,0.3,0.1,0.5,0.1c0.9,0,1.8-0.6,2-1.6l1.9-8
		C96.3,26.3,94.2,22.9,90.8,22.1z"/>
	<path fill="#12100B" d="M89.9,43.2c0,0-0.1,0-0.1,0c0,0-0.1,0-0.1,0l-15.8-3.7c-0.1,0-0.1,0-0.2,0c-0.1,0-0.2,0-0.2,0
		c-1,0-1.8,0.6-2,1.6l-16.6,70.5c0,0,0,0.1,0,0.1c0,0.1,0,0.1,0,0.2c0,0.1,0,0.1,0,0.2c0,0.1,0,0.1,0,0.2s0,0.1,0,0.2
		c0,0,0,0.1,0,0.1l4.5,15.8c0.2,0.8,0.9,1.4,1.7,1.5c1,0.1,1.7-0.1,2.1-0.6l11.2-12l0,0c0.3-0.3,0.5-0.6,0.6-1l16.6-70.5
		C91.7,44.6,91,43.5,89.9,43.2z M74.9,43.9L87,46.8L86.7,48l-15.6,66.4l-2.9,3.2c-1.8-2.1-3.8-2.5-5.3-2.5c-1.1,0-2.1,0.3-2.9,0.6
		l-1-3.6l2.1-9.1L74.9,43.9z"/>
	<path fill="#12100B" d="M29.1,73.7l19-19c0.8-0.8,0.8-2.1,0-2.9c-0.8-0.8-2.1-0.8-2.9,0L24.8,72.3c-0.8,0.8-0.8,2.1,0,2.9
		l20.5,20.5c0.4,0.4,0.9,0.6,1.4,0.6c0.5,0,1-0.2,1.4-0.6c0.8-0.8,0.8-2.1,0-2.9L29.1,73.7z"/>
	<path fill="#12100B" d="M125.2,72.3l-20.5-20.5c-0.8-0.8-2.1-0.8-2.9,0c-0.8,0.8-0.8,2.1,0,2.9l19,19l-19.1,19.1
		c-0.8,0.8-0.8,2.1,0,2.9c0.4,0.4,0.9,0.6,1.4,0.6c0.5,0,1-0.2,1.4-0.6l20.5-20.5C126,74.4,126,73.1,125.2,72.3z"/>
</g>
</svg>
