<?xml version="1.0" encoding="utf-8"?>
<!-- Generator: Adobe Illustrator 17.1.0, SVG Export Plug-In . SVG Version: 6.00 Build 0)  -->
<!DOCTYPE svg PUBLIC "-//W3C//DTD SVG 1.1//EN" "http://www.w3.org/Graphics/SVG/1.1/DTD/svg11.dtd">
<svg version="1.1" id="Layer_1" xmlns="http://www.w3.org/2000/svg" xmlns:xlink="http://www.w3.org/1999/xlink" x="0px" y="0px"
	 viewBox="0 0 150 150" enable-background="new 0 0 150 150" xml:space="preserve">
<g>
	<path fill="none" d="M106,87.1H34.7c0.1,3.8,1,7.7,2.3,11.2L106,87.1z"/>
	<path fill="none" d="M105.2,114.6c6.2,0,11.4-5,11.4-11.4c0-4.9-3.1-9-7.7-11.1c-1.4,7.7-4.9,14.7-10.3,20.3
		C100.6,113.8,102.8,114.6,105.2,114.6z"/>
	<polygon fill="none" points="33.3,126.7 72.5,126.7 72.5,128.3 33.3,128.3 33.3,130.5 105.2,130.5 105.2,124.2 33.3,124.2 	"/>
	<path fill="#69829F" d="M37.1,98.7c1.4,3.4,3.3,6.8,5.7,9.7l63.7-21.3v0H106L37,98.3C37,98.4,37.1,98.5,37.1,98.7z"/>
	<path fill="#364A5E" d="M105.2,92.1c-1.2,0-2.3,0.3-3.4,0.5c-1.5,0.4-2.8,1.1-3.9,2c-0.5,0.4-1.1,0.9-1.5,1.5
		c-0.4,0.5-0.8,1.1-1.2,1.7c-0.8,1.6-1.4,3.4-1.4,5.4c0,2.7,0.8,5.1,2.3,7.2c5-5,8.2-11.3,9.6-18.4
		C105.6,92.1,105.3,92.1,105.2,92.1z"/>
	<path fill="#364A5E" d="M43,108.7c0.8,0.8,1.3,1.5,2.2,2.3c6.1,6,14.1,9.7,22.7,10.3h5.3c7.6-0.5,14.7-3.5,20.6-8.5l-0.1-0.1
		c-2-2.4-3.1-5.7-3.1-9.1v-0.1c0.1-8.1,6.6-14.6,14.7-14.6c0.3,0,0.8,0,1.1,0c0.1-0.4,0.1-0.8,0.1-1.2v-0.1v-0.1c0,0,0,0,0-0.1v-0.1
		l-63.7,21.3C42.9,108.5,43,108.6,43,108.7z"/>
	<path fill="#020202" d="M105.2,118c8.1,0,14.7-6.6,14.7-14.7c0-6.6-4.3-12.2-10.3-14.1c0.1-1.4,0.1-2.6,0.1-3.9v-1.9H31.7v1.9
		c0,10.7,4.1,20.4,11.4,27.7c3.2,3.2,7.2,5.9,11.5,8H30v12.6h78.5V121H86.8c3.4-1.5,6.6-3.7,9.6-6.1C98.7,116.9,101.8,118,105.2,118
		z M96.2,110.5c-1.5-2-2.3-4.5-2.3-7.2c0-2,0.5-3.8,1.4-5.4c0.4-0.7,0.8-1.2,1.2-1.7c0.4-0.5,1-1.1,1.5-1.5c1.1-1,2.4-1.6,3.9-2
		c1.1-0.3,2.2-0.5,3.4-0.5c0.1,0,0.4,0,0.5,0C104.4,99.1,101.2,105.5,96.2,110.5z M116.6,103.3c0,6.4-5.1,11.4-11.4,11.4
		c-2.4,0-4.6-0.8-6.6-2.2c5.4-5.5,8.9-12.6,10.3-20.3C113.5,94.2,116.6,98.4,116.6,103.3z M106,87.1h0.5v0v0.1c0,0.1,0,0.1,0,0.1
		v0.1v0.1c0,0.4,0,0.8-0.1,1.2c-0.3,0-0.8,0-1.1,0c-8.1,0-14.6,6.5-14.7,14.6v0.1c0,3.4,1.1,6.6,3.1,9.1l0.1,0.1
		c-5.9,5-13,7.9-20.6,8.5h-5.3c-8.7-0.5-16.6-4.3-22.7-10.3c-0.8-0.8-1.4-1.5-2.2-2.3c-0.1-0.1-0.2-0.2-0.3-0.3
		c-2.4-2.9-4.2-6.3-5.7-9.7c-0.1-0.1-0.1-0.3-0.2-0.4c-1.3-3.5-2.1-7.4-2.3-11.2H106z M105.2,124.2v6.2H33.3v-2.2h39.2v-1.6H33.3
		v-2.4H105.2z"/>
	<path fill="#020202" d="M57.9,33.1c4.1-0.5,7.3,1.1,9.2,4.5c2.3,4.2,1.7,11.1-3.9,16.9C49.5,69.9,60.5,80.8,60.6,81
		c0.3,0.3,0.8,0.4,1.2,0.4s1-0.1,1.2-0.4c0.5-0.5,0.5-1.6,0-2.3c-0.3-0.3-8.7-8.9,2.7-22c6.9-7,7.2-15.4,4.5-20.7
		c-2.7-4.7-7.4-7-12.7-6.1c-1,0.1-1.5,1-1.4,1.7C56.2,32.6,57,33.3,57.9,33.1z"/>
	<path fill="#020202" d="M66,26.5c3.8-0.5,7.3,1.6,9.6,5.9c3.1,5.8,3.4,15.1-3,22c-5.1,5.7-7.3,11.1-6.9,16.2
		c0.5,5.4,4.2,8.1,4.3,8.3c0.4,0.3,0.8,0.3,1.1,0.3c0.4,0,1-0.1,1.4-0.5c0.5-0.8,0.4-1.6-0.3-2.3c-0.1-0.1-2.7-2.2-3-6.1
		c-0.4-4.1,1.6-8.7,5.9-13.7c7.4-8.1,7-19.1,3.4-25.8c-3-5.5-7.8-8.4-13-7.7c-1,0.1-1.5,1-1.4,1.7C64.2,26,65.2,26.6,66,26.5z"/>
	<path fill="#020202" d="M74.9,19.6c3.8-0.5,7.8,2.2,10.5,7c4.2,7.4,5.1,19.2-2.6,28.3c-5.3,5.9-7.4,11.2-6.8,16.1
		c0.8,4.6,4.2,6.8,4.3,6.9c0.3,0.1,0.5,0.3,1,0.3c0.5,0,1.1-0.3,1.4-0.8c0.4-0.8,0.1-1.7-0.5-2.3c0,0-2.4-1.5-2.8-4.6
		c-0.5-3.7,1.5-8.3,5.9-13.4c8.7-10.1,7.8-23.4,3-31.9c-3.4-6.1-8.8-9.5-13.8-8.7c-1,0.1-1.5,1-1.4,1.7C73.2,19.1,74,19.7,74.9,19.6
		z"/>
</g>
</svg>
