<?xml version="1.0" encoding="utf-8"?>
<!-- Generator: Adobe Illustrator 17.1.0, SVG Export Plug-In . SVG Version: 6.00 Build 0)  -->
<!DOCTYPE svg PUBLIC "-//W3C//DTD SVG 1.1//EN" "http://www.w3.org/Graphics/SVG/1.1/DTD/svg11.dtd">
<svg version="1.1" id="Layer_1" xmlns="http://www.w3.org/2000/svg" xmlns:xlink="http://www.w3.org/1999/xlink" x="0px" y="0px"
	 viewBox="0 0 150 150" enable-background="new 0 0 150 150" xml:space="preserve">
<g>
	<path fill="none" d="M106,87.9c0-0.1,0-0.2,0-0.3H35.2c0.2,4,1,7.8,2.3,11.3L106,87.9z"/>
	<path fill="none" d="M104.9,115.4c6.2,0,11.3-5.1,11.3-11.3c0-4.9-3.1-9.1-7.5-10.7c-1.4,7.5-4.9,14.4-10.3,19.9
		C100.2,114.6,102.5,115.4,104.9,115.4z"/>
	<polygon fill="none" points="33.8,127.2 72.6,127.2 72.6,128.8 33.8,128.8 33.8,130.8 104.9,130.8 104.9,124.8 33.8,124.8 	"/>
	<path fill="#F2B350" d="M37.6,99.2c1.4,3.5,3.3,6.8,5.7,9.6L106,88.1c0-0.1,0-0.1,0-0.2L37.5,98.9C37.6,99,37.6,99.1,37.6,99.2z"/>
	<path fill="#69829F" d="M104.9,92.8c-6.2,0-11.3,5.1-11.3,11.3c0,2.6,0.9,5,2.4,6.9c5-5.1,8.2-11.3,9.5-18.3
		C105.3,92.8,105.1,92.8,104.9,92.8z"/>
	<path fill="#69829F" d="M43.4,109L43.4,109c0,0.1,0.1,0.1,0.1,0.1c0.7,0.8,1.3,1.5,2.1,2.2c2.1,2,4.3,3.7,6.7,5.2
		c4.8,2.9,10.2,4.6,15.9,5h5.2c7.6-0.6,14.7-3.5,20.4-8.4c-2-2.5-3.2-5.7-3.2-9.1c0-3.5,1.2-6.7,3.3-9.2c1.7-2.1,3.9-3.6,6.5-4.5
		c0.1-0.1,0.3-0.1,0.4-0.1c1-0.3,2-0.5,3.1-0.6c0.4,0,0.8-0.1,1.2-0.1c0.3,0,0.7,0,1,0.1c0-0.4,0.1-0.8,0.1-1.2c0-0.1,0-0.2,0-0.3
		c0,0,0,0,0,0l-62.7,20.8C43.3,108.9,43.4,108.9,43.4,109z"/>
	<path fill="#010101" d="M104.9,118.6c8,0,14.5-6.5,14.5-14.5c0-6.5-4.3-12.1-10.3-13.9c0.1-1.3,0.2-2.6,0.2-3.9v-1.9H32.2v1.9
		c0,4.7,0.8,9.2,2.3,13.4c1.3,3.7,3.2,7.2,5.7,10.4c0,0,0,0,0,0.1c1,1.3,2.1,2.5,3.2,3.7c1.7,1.7,3.5,3.2,5.5,4.5
		c1.8,1.3,3.8,2.4,5.8,3.3H30.6V134h77.5v-12.4H86.6c3.4-1.5,6.6-3.6,9.4-6C98.5,117.4,101.6,118.6,104.9,118.6z M96,111
		c-1.5-1.9-2.4-4.3-2.4-6.9c0-6.2,5.1-11.3,11.3-11.3c0.2,0,0.4,0,0.6,0C104.2,99.7,101,106,96,111z M116.2,104.1
		c0,6.2-5.1,11.3-11.3,11.3c-2.4,0-4.6-0.8-6.4-2.1c5.4-5.5,8.9-12.4,10.3-19.9C113,95,116.2,99.2,116.2,104.1z M106,87.6
		c0,0.1,0,0.2,0,0.3c0,0.1,0,0.1,0,0.2c0,0,0,0,0,0c0,0.1,0,0.2,0,0.3c0,0.4-0.1,0.8-0.1,1.2c-0.3,0-0.7-0.1-1-0.1
		c-0.4,0-0.8,0-1.2,0.1c-1.1,0.1-2.1,0.3-3.1,0.6c-0.1,0.1-0.2,0.1-0.4,0.1c-2.6,0.9-4.8,2.5-6.5,4.5c-2.1,2.5-3.3,5.7-3.3,9.2
		c0,3.5,1.2,6.6,3.2,9.1c-5.7,4.8-12.8,7.8-20.4,8.4h-5.2c-5.7-0.4-11.1-2.1-15.9-5c-2.4-1.5-4.6-3.2-6.7-5.2
		c-0.7-0.7-1.4-1.5-2.1-2.2c0,0-0.1-0.1-0.1-0.1l0,0c0-0.1-0.1-0.1-0.1-0.2c-2.4-2.9-4.3-6.1-5.7-9.6c0-0.1-0.1-0.2-0.1-0.2
		c-1.3-3.6-2.1-7.4-2.3-11.3H106z M104.9,124.8v6H33.8v-2h38.7v-1.6H33.8v-2.4H104.9z"/>
	<path fill="#010101" d="M49,33.1l12,8.8L56.4,56c-0.2,0.5,0,1,0.4,1.3c0.4,0.3,1,0.3,1.4,0l3.5-2.5c-0.4-0.2-0.6-0.5-0.5-1
		c0.1-0.4,0.3-0.7,0.5-0.8c0.2-0.1,0.4-0.2,0.6-0.2c0.1,0,0.7,0.1,1.5,0.4l6.9-5C70.5,48,70.3,48,70.2,48c-0.6-0.2-1-0.5-0.9-1.2
		c0.1-0.4,0.3-0.7,0.5-0.8c0.1,0,0.2-0.1,0.3-0.1c-0.2,0-0.4,0.1-0.6,0.2l-9.8,7.1l3.7-11.5c0.2-0.5,0-1-0.4-1.3l-9.8-7.1h12.1
		c0.5,0,0.9-0.3,1.1-0.8l3.7-11.5l3.7,11.5c0.2,0.5,0.6,0.8,1.1,0.8h12.1l-9.8,7.1l0,0c-0.1,0.1-0.2,0.2-0.3,0.3
		c0.1-0.1,0.1-0.1,0.2-0.1c0.2-0.1,0.4-0.2,0.6-0.2c0.1,0,1.1,0.1,2.4,0.8l11-8c0.1,0,0.2-0.1,0.4-0.3c0.3-0.3,0.3-0.7,0.2-1.1
		c-0.1-0.4-0.4-0.7-0.8-0.8C91,31,90.9,31,90.8,31H76l-4.6-14.2c-0.2-0.5-0.6-0.8-1.1-0.8s-0.9,0.3-1.1,0.8L64.6,31H49.7
		c-0.5,0-0.9,0.3-1.1,0.8C48.4,32.2,48.6,32.8,49,33.1z"/>
	<path fill="#020202" d="M77.4,40.5c-0.1,0-0.1,0.1-0.2,0.1c-0.2,0.1-0.3,0.4-0.3,0.7c-0.1,0.7,0.3,1,0.9,1.2c0.1,0,2.2,0.3,3.7,2.5
		c1.5,2,1.9,5.1,1.2,9.2c-0.9,4.7-0.4,8.4,1.5,11.1c2.2,2.9,5.1,3.2,5.2,3.3c0.2,0,0.5-0.1,0.6-0.2c0.2-0.1,0.5-0.4,0.5-0.8
		c0.1-0.7-0.3-1-0.9-1.2c-0.1,0-2.2-0.3-3.7-2.5c-1.5-2-1.9-5.1-1.2-9.2c0.9-4.7,0.4-8.4-1.5-11.1c-0.9-1.2-1.9-1.9-2.8-2.4
		c-1.3-0.7-2.3-0.8-2.4-0.8C77.8,40.4,77.6,40.5,77.4,40.5z"/>
	<path fill="#020202" d="M69.3,46.8c-0.1,0.7,0.3,1,0.9,1.2c0,0,0.2,0,0.5,0.1c0.7,0.2,2.1,0.8,3.2,2.3c1.5,2,1.9,5.1,1.2,9.2
		c-0.9,4.7-0.4,8.4,1.5,11.1c2.2,2.9,5.1,3.2,5.2,3.3c0.2,0,0.5-0.1,0.6-0.2c0.2-0.1,0.5-0.4,0.5-0.8c0.1-0.7-0.3-1-0.9-1.2
		c-0.1,0-2.2-0.3-3.7-2.5c-1.5-2-1.9-5.1-1.2-9.2c0.9-4.7,0.4-8.4-1.5-11.1c-2.2-2.9-5.1-3.2-5.2-3.3c-0.1,0-0.2,0-0.3,0
		c-0.1,0-0.2,0.1-0.3,0.1C69.7,46.1,69.4,46.4,69.3,46.8z"/>
	<path fill="#020202" d="M61.8,52.9c-0.2,0.1-0.5,0.4-0.5,0.8c-0.1,0.5,0.1,0.8,0.5,1c0.1,0.1,0.2,0.1,0.4,0.1
		c0.1,0,2.2,0.3,3.7,2.5c1.5,2,1.9,5.1,1.2,9.2c-0.9,4.7-0.4,8.4,1.5,11.1c2.2,2.9,5.1,3.2,5.2,3.3c0.2,0,0.5-0.1,0.6-0.2
		c0.2-0.1,0.5-0.4,0.5-0.8c0.1-0.7-0.3-1-0.9-1.2c-0.1,0-2.2-0.3-3.7-2.5c-1.5-2-1.9-5.1-1.2-9.2c0.9-4.7,0.4-8.4-1.5-11.1
		c-1.2-1.6-2.6-2.4-3.7-2.8c-0.8-0.3-1.5-0.4-1.5-0.4C62.2,52.7,61.9,52.8,61.8,52.9z"/>
</g>
</svg>
