<?xml version="1.0" encoding="utf-8"?>
<!-- Generator: Adobe Illustrator 17.1.0, SVG Export Plug-In . SVG Version: 6.00 Build 0)  -->
<!DOCTYPE svg PUBLIC "-//W3C//DTD SVG 1.1//EN" "http://www.w3.org/Graphics/SVG/1.1/DTD/svg11.dtd">
<svg version="1.1" id="Layer_1" xmlns="http://www.w3.org/2000/svg" xmlns:xlink="http://www.w3.org/1999/xlink" x="0px" y="0px"
	 viewBox="0 0 150 150" enable-background="new 0 0 150 150" xml:space="preserve">
<g>
	<polygon fill="none" points="93,91.7 94.9,88.3 92.5,87 90.5,90.6 89,93.3 91.4,94.6 	"/>
	<polygon fill="none" points="68.9,60.9 67.2,64.1 70.4,65.9 72.2,62.8 	"/>
	<path fill="none" d="M62.5,78.4l-0.1,0.2l0.7,0.4C62.9,78.7,62.7,78.5,62.5,78.4z"/>
	<path fill="none" d="M78.8,87.5c0.4,0,0.8-0.2,1-0.6c0.2-0.3,0.2-0.7,0-1c-0.1-0.2-0.3-0.4-0.4-0.5c-0.2-0.1-0.4-0.2-0.6-0.2
		c-0.1,0-0.1,0-0.2,0c-0.3,0.1-0.6,0.3-0.7,0.5c-0.3,0.5-0.1,1.2,0.4,1.5C78.5,87.4,78.6,87.5,78.8,87.5z"/>
	<circle fill="none" cx="52.3" cy="46.6" r="1.1"/>
	<path fill="none" d="M75.6,85.8l-7.7-4.3c0,0.1,0.1,0.1,0.1,0.2L75.6,85.8C75.6,85.8,75.6,85.8,75.6,85.8z"/>
	<circle fill="none" cx="45" cy="46.6" r="1.1"/>
	<circle fill="none" cx="37.7" cy="46.6" r="1.1"/>
	<path fill="#03C9A9" d="M89.2,101.7c-0.1,0-0.3,0-0.4-0.1l-0.1,0l-0.1-0.1l-4.1-2.3l0,0l0,0c0,0,0,0,0,0l-0.1,0
		C84.2,99,84,98.7,84,98.5c-0.1-0.3,0-0.6,0.1-0.8l0.5-1c-1-0.3-2-0.5-3.1-0.5c-1.5,0-3.1,0.3-4.8,0.9l0,0l0,0c-0.1,0-0.2,0-0.3,0
		c-0.4,0-0.8-0.2-1-0.5c-3.8-6.2-9.7-15.2-12.2-17.7l-0.7-0.4l-5,8.9l1.6,0.9c0.3,0.1,0.5,0.4,0.5,0.7c0.1,0.3,0,0.6-0.1,0.9
		l-1.8,3.2l63.6,18.4v-0.3l-28-15.5l-3.1,5.5C90,101.5,89.6,101.7,89.2,101.7z"/>
	<path fill="#03C9A9" d="M77.2,89.3c-1.2-0.7-1.9-2.1-1.6-3.4L68,81.6c2.3,3.1,5.2,7.5,8.7,13.1c1.6-0.5,3.2-0.8,4.7-0.8
		c1.5,0,3,0.3,4.3,0.8l1.4-2.5L81,88.8c-0.6,0.5-1.4,0.8-2.2,0.8C78.2,89.7,77.7,89.5,77.2,89.3z"/>
	<path fill="#03C9A9" d="M49.6,90.8l2.7-4.8c0.2-0.4,0.6-0.6,1-0.6c0.2,0,0.4,0,0.6,0.1l1.6,0.9l5.1-9L28.7,59.9v24.8L49.6,90.8z"/>
	<polygon fill="#03C9A9" points="89,93.3 86.4,97.8 88.8,99.1 91.4,94.6 	"/>
	<polygon fill="#03C9A9" points="56.9,89.9 53.7,88 51.9,91.1 53.1,91.8 55.4,92.5 	"/>
	<path fill="#4183D7" d="M56.6,95c-0.2,0.4-0.6,0.6-1,0.6c-0.2,0-0.4-0.1-0.6-0.1l-5.2-2.9c-0.3-0.1-0.5-0.4-0.5-0.7
		c-0.1-0.3,0-0.6,0.1-0.9l0.1-0.2l-20.9-6v26.8h92.6v0L57.7,93.1L56.6,95z"/>
	<polygon fill="#4183D7" points="55.4,92.5 53.1,91.8 55.2,93 	"/>
	<path fill="#010101" d="M91.7,49.8c-1.1,0-2,0.9-2,2s0.9,2,2,2h31.5c0.9,0,1.7-0.6,1.9-1.5c0.1-0.3,0.2-0.6,0.2-0.9v-14
		c0-1.7-1.3-3-3-3H27.7c-1.7,0-3,1.3-3,3v10.3v64.7c0,1.7,1.3,3,3,3h94.6c2.9,0,3-2.1,3-2.3V113v-47c0-1.1-0.9-2-2-2s-2,0.9-2,2
		v45.2v0.3v0H28.7V84.8V59.9V47.8v-9.3h92.6v11.3H91.7z"/>
	<path fill="#010101" d="M34.6,46.6c0,1.7,1.4,3.1,3.1,3.1s3.1-1.4,3.1-3.1s-1.4-3.1-3.1-3.1S34.6,44.9,34.6,46.6z M38.9,46.6
		c0,0.6-0.5,1.1-1.1,1.1s-1.1-0.5-1.1-1.1s0.5-1.1,1.1-1.1S38.9,46,38.9,46.6z"/>
	<path fill="#010101" d="M41.9,46.6c0,1.7,1.4,3.1,3.1,3.1s3.1-1.4,3.1-3.1s-1.4-3.1-3.1-3.1S41.9,44.9,41.9,46.6z M46.2,46.6
		c0,0.6-0.5,1.1-1.1,1.1s-1.1-0.5-1.1-1.1s0.5-1.1,1.1-1.1S46.2,46,46.2,46.6z"/>
	<path fill="#010101" d="M49.2,46.6c0,1.7,1.4,3.1,3.1,3.1s3.1-1.4,3.1-3.1s-1.4-3.1-3.1-3.1S49.2,44.9,49.2,46.6z M53.4,46.6
		c0,0.6-0.5,1.1-1.1,1.1s-1.1-0.5-1.1-1.1s0.5-1.1,1.1-1.1S53.4,46,53.4,46.6z"/>
	<path d="M53.8,85.6c-0.2-0.1-0.4-0.1-0.6-0.1c-0.4,0-0.8,0.2-1,0.6l-2.7,4.8L49.5,91c-0.1,0.3-0.2,0.6-0.1,0.9
		c0.1,0.3,0.3,0.5,0.5,0.7l5.2,2.9c0.2,0.1,0.4,0.1,0.6,0.1c0.4,0,0.8-0.2,1-0.6l1.1-1.9l1.8-3.2c0.1-0.3,0.2-0.6,0.1-0.9
		c-0.1-0.3-0.3-0.5-0.5-0.7l-1.6-0.9l5-8.9l0.1-0.2c0.2,0.1,0.4,0.3,0.6,0.5c2.6,2.6,8.5,11.5,12.2,17.7c0.2,0.3,0.6,0.5,1,0.5
		c0.1,0,0.2,0,0.3,0l0,0l0,0c1.7-0.6,3.3-0.9,4.8-0.9c1.1,0,2.2,0.2,3.1,0.5l-0.5,1c-0.1,0.2-0.2,0.5-0.1,0.8
		c0.1,0.3,0.2,0.5,0.5,0.6l0.1,0c0,0,0,0,0,0l0,0l0,0l4.1,2.3l0.1,0.1l0.1,0c0.1,0.1,0.3,0.1,0.4,0.1c0.4,0,0.7-0.2,0.9-0.5l3.1-5.5
		l1.6-2.9l2.4-4.3c0.3-0.5,0.1-1.2-0.4-1.5l-0.1,0l0,0l0,0l0,0l-4-2.3l-0.1-0.1l-0.1,0l0,0l0,0c-0.1,0-0.2,0-0.3,0
		c-0.4,0-0.7,0.2-0.9,0.5l-2.5,4.5l-1.5,2.7l-1.4,2.5c-1.3-0.5-2.7-0.8-4.3-0.8c-1.5,0-3.1,0.3-4.7,0.8c-3.5-5.6-6.4-10-8.7-13.1
		c0-0.1-0.1-0.1-0.1-0.2l7.7,4.3c0,0,0,0,0,0c-0.2,1.3,0.4,2.7,1.6,3.4c0.5,0.3,1.1,0.4,1.6,0.4c0.8,0,1.6-0.3,2.2-0.8
		c0.3-0.2,0.5-0.5,0.7-0.9c0.3-0.6,0.5-1.3,0.4-2c-0.1-1.1-0.7-2-1.7-2.5c-0.5-0.3-1-0.4-1.6-0.4c-0.6,0-1.2,0.2-1.7,0.5
		c-0.1,0.1-0.3,0.2-0.5,0.4l0,0l-13.1-7.4l5.1-9.1l1.6,0.9c0.2,0.1,0.4,0.1,0.6,0.1c0.4,0,0.8-0.2,1-0.6l2.8-5
		c0.3-0.5,0.1-1.2-0.4-1.5l-5.2-2.9c-0.2-0.1-0.4-0.1-0.5-0.1c-0.4,0-0.8,0.2-1,0.6l-2.8,5c-0.3,0.6-0.1,1.2,0.4,1.5l1.6,0.9
		l-5.5,9.7l-0.8,1.4l-5.1,9L53.8,85.6z M51.9,91.1l1.8-3.1l3.3,1.8l-1.5,2.6L55.2,93l-2.1-1.2L51.9,91.1z M77.9,85.8
		c0.2-0.3,0.4-0.5,0.7-0.5c0.1,0,0.1,0,0.2,0c0.2,0,0.4,0.1,0.6,0.2c0.2,0.1,0.4,0.3,0.4,0.5c0.2,0.3,0.2,0.7,0,1
		c-0.2,0.4-0.6,0.6-1,0.6c-0.2,0-0.4-0.1-0.6-0.1C77.8,87,77.6,86.3,77.9,85.8z M67.2,64.1l1.8-3.1l3.2,1.8l-1.8,3.1L67.2,64.1z
		 M86.4,97.8l2.6-4.5l1.5-2.7l2-3.6l2.4,1.3L93,91.7l-1.6,2.9l-2.6,4.6L86.4,97.8z"/>
</g>
</svg>
