<?xml version="1.0" encoding="utf-8"?>
<!-- Generator: Adobe Illustrator 17.1.0, SVG Export Plug-In . SVG Version: 6.00 Build 0)  -->
<!DOCTYPE svg PUBLIC "-//W3C//DTD SVG 1.1//EN" "http://www.w3.org/Graphics/SVG/1.1/DTD/svg11.dtd">
<svg version="1.1" id="Layer_1" xmlns="http://www.w3.org/2000/svg" xmlns:xlink="http://www.w3.org/1999/xlink" x="0px" y="0px"
	 viewBox="0 0 150 150" enable-background="new 0 0 150 150" xml:space="preserve">
<g>
	<path fill="none" d="M101.4,119.3c2.4,0,4.5-2,4.5-4.6v-5.5v-0.3c0-2.4-1.9-4.6-4.5-4.6h-25H58.8c-0.8,0-1.9-0.3-2.7-0.5l-6.5,15.5
		H101.4z M75,108.3c2.2,0,3.8,1.6,3.8,3.8s-1.7,3.8-3.8,3.8c-2,0-3.8-1.6-3.8-3.8C71.2,109.9,73,108.3,75,108.3z"/>
	<path fill="none" d="M75,114.1c1.1,0,1.9-0.8,1.9-1.9s-0.9-1.9-1.9-1.9c-0.9,0-1.9,0.8-1.9,1.9S73.9,114.1,75,114.1z"/>
	<path fill="#54B3D9" d="M44.1,35v79.6c0,2.4,2,4.6,4.6,4.6h1h0.1l6.5-15.5c0,0,0,0,0,0c-1.1-0.4-2-1.1-2.8-1.9
		c-1.3-1.4-2.3-3.4-2.3-5.5v-48c0-4.3,3.5-8,8-8h23.6l0,0l3.8-9.8H48.7C46.2,30.5,44.1,32.5,44.1,35z M67.1,35.6
		c0-0.4,0.3-0.8,0.8-0.8h14.2c0.4,0,0.8,0.3,0.8,0.8c0,0.1,0,0.1,0,0.1c0,0.4-0.3,0.8-0.8,0.8H67.9c-0.5,0-0.9-0.4-0.8-0.8
		C67.1,35.6,67.1,35.6,67.1,35.6z"/>
	<path fill="#030303" d="M75,115.9c2,0,3.8-1.6,3.8-3.8s-1.6-3.8-3.8-3.8c-2,0-3.8,1.6-3.8,3.8C71.2,114.2,73,115.9,75,115.9z
		 M75,110.3c1,0,1.9,0.8,1.9,1.9s-0.8,1.9-1.9,1.9s-1.9-0.8-1.9-1.9S74,110.3,75,110.3z"/>
	<path fill="#030303" d="M67.9,36.5h14.2c0.5,0,0.8-0.4,0.8-0.8c0,0,0,0,0-0.1c0-0.5-0.4-0.8-0.8-0.8H67.9c-0.5,0-0.8,0.4-0.8,0.8
		c0,0,0,0,0,0.1C67,36.1,67.4,36.5,67.9,36.5z"/>
	<path fill="#C7E9F2" d="M54.4,48.4v47.9v0.1c0,2.4,2,4.6,4.6,4.6h3.3l23.3-57.2H58.9C56.5,43.8,54.4,45.9,54.4,48.4z"/>
	<path fill="#020202" d="M101.3,101H71.4h-8.5h-0.7h-3.3c-2.6,0-4.6-2.2-4.6-4.6v-0.1V48.4c0-2.6,2.2-4.6,4.6-4.6h26.5h0.6h0.1h5.3
		c2.6,0,4.6,2.2,4.6,4.6v0.1v25v0.1c0,0.8,0.7,1.7,1.7,1.7c0.8,0,1.7-0.7,1.7-1.7v-0.1v-25v-0.3c0-4.5-3.7-8-8-8h-8.6h-0.4H58.9
		c-4.5,0-8,3.7-8,8v48c0,2.2,1,4.2,2.3,5.5c0.8,0.8,1.7,1.5,2.8,1.9c0,0,0,0,0,0c0.8,0.3,1.9,0.5,2.7,0.5h17.7h25
		c2.6,0,4.5,2.2,4.5,4.6v0.3v5.5c0,2.6-2,4.6-4.5,4.6H49.7h-0.1h-1c-2.6,0-4.6-2.2-4.6-4.6V35c0-2.6,2.2-4.6,4.6-4.6h37.6h0.5h14.4
		c2.6,0,4.6,2.2,4.6,4.6v20.5v10v0.1c0,0.8,0.7,1.7,1.7,1.7c0.8,0,1.7-0.7,1.7-1.7v-0.1V35c0-4.4-3.6-7.9-8.1-7.9H48.7
		c-2.6,0-4.7,1.1-6.3,3c-1,1.4-1.7,3.1-1.7,5v79.9c0,4.5,3.7,8,8,8h52.8c4.5,0,8.1-3.7,8.1-8v-6.1C109.3,104.5,105.6,101,101.3,101z
		"/>
</g>
</svg>
