<?xml version="1.0" encoding="utf-8"?>
<!-- Generator: Adobe Illustrator 17.1.0, SVG Export Plug-In . SVG Version: 6.00 Build 0)  -->
<!DOCTYPE svg PUBLIC "-//W3C//DTD SVG 1.1//EN" "http://www.w3.org/Graphics/SVG/1.1/DTD/svg11.dtd">
<svg version="1.1" id="Layer_1" xmlns="http://www.w3.org/2000/svg" xmlns:xlink="http://www.w3.org/1999/xlink" x="0px" y="0px"
	 viewBox="0 0 150 150" enable-background="new 0 0 150 150" xml:space="preserve">
<g>
	<path fill="none" d="M104.9,102.1c6.3,0,11.4-5.1,11.4-11.4c0-5-3.1-9.1-7.5-10.6c-1.3,7.5-5,14.5-10.4,20
		C100.2,101.3,102.5,102.1,104.9,102.1z"/>
	<path fill="none" d="M106.3,74.5c0-0.1,0-0.4,0-0.5H35c0.1,4.2,1.1,8.1,2.4,11.7L106.3,74.5z"/>
	<polygon fill="none" points="33.5,113.9 72.5,113.9 72.5,115.5 33.5,115.5 33.5,117.5 105.1,117.5 105.1,111.5 33.5,111.5 	"/>
	<path fill="#A4D8CE" d="M37.4,85.7c1.4,3.6,3.4,7,5.9,9.9l62.9-21c0,0,0-0.1,0-0.1c0,0,0,0,0,0L37.4,85.7
		C37.4,85.7,37.4,85.7,37.4,85.7z"/>
	<path fill="#346E7B" d="M105.1,79.2c-6.3,0-11.4,5.1-11.4,11.4c0,2.6,1,5.1,2.5,7c5-5.1,8.2-11.4,9.5-18.4
		C105.5,79.2,105.2,79.2,105.1,79.2z"/>
	<path fill="#346E7B" d="M43.3,95.6c0.7,0.8,1.4,1.6,2,2.3c6,6,14.1,9.7,22.7,10.4h5.1c7.7-0.5,14.8-3.5,20.4-8.5
		c-2-2.4-3.2-5.6-3.2-9.1C90.4,82.6,97,76,105,76c0.4,0,0.7,0,1.1,0c0.1-0.4,0.1-0.8,0.1-1.2c0-0.1,0-0.1,0-0.1L43.3,95.6
		C43.3,95.6,43.3,95.6,43.3,95.6z"/>
	<path d="M47.4,51.6c0,0,0.1,0,0.3,0c0.1,0,0.3,0,0.4,0l1.2,0.1l0.4-1.2c1.7-5,6.5-8.3,11.6-8.3c0.7,0,1.4,0.1,2.2,0.3l1.1,0.1
		l0.5-1c3.1-5.4,8.7-8.7,14.8-8.7c9.4,0,16.9,7.7,16.9,16.9c0,0,0,0.1,0,0.3s0,0.4,0,0.5v1.2l1.1,0.4c4.3,1.5,8.3,5.4,8.3,12.9h3.2
		c0,0,0-11.4-9.3-15.6c-0.2-11-9.2-20-20.2-20c-6.9,0-13.3,3.6-16.9,9.4c-0.5-0.1-1.1-0.1-1.6-0.1c-6.2,0-11.7,3.6-14.3,9.3
		c-15.2,0.3-15.2,17.2-15.2,17.2h3.4C35.3,55.3,41.3,51.6,47.4,51.6z"/>
	<path d="M105.1,105.2c8.1,0,14.7-6.6,14.7-14.7c0-6.6-4.3-12.1-10.4-14c0.1-1.4,0.1-2.5,0.1-3.9v-1.9H82.1V54.3h0.3l5.8,5.8
		c0.3,0.3,0.7,0.5,1.1,0.5c0.4,0,0.8-0.1,1.1-0.5c0.7-0.7,0.7-1.6,0-2.3l-8.4-8.5c-0.3-0.3-0.8-0.5-1.2-0.4c-0.4,0-0.8,0.1-1.2,0.4
		l-8.5,8.5c-0.7,0.7-0.7,1.6,0,2.3c0.3,0.3,0.7,0.5,1.1,0.5c0.4,0,0.8-0.1,1.1-0.5l5.8-5.8v16.4H31.9v1.9c0,10.5,4,20.3,11.3,27.6
		c3.4,3.4,7.2,5.9,11.4,7.8H30.3v12.5h78V108H86.6c3.4-1.5,6.6-3.5,9.5-6C98.6,104.1,101.7,105.2,105.1,105.2z M96.1,97.6
		c-1.5-1.9-2.5-4.4-2.5-7c0-6.3,5.1-11.4,11.4-11.4c0.1,0,0.4,0,0.5,0C104.3,86.2,101,92.5,96.1,97.6z M116.4,90.6
		c0,6.3-5.1,11.4-11.4,11.4c-2.4,0-4.7-0.8-6.5-2c5.4-5.5,9-12.5,10.4-20C113.3,81.5,116.4,85.7,116.4,90.6z M106.3,73.9
		c0,0.1,0,0.4,0,0.5c0,0,0,0,0,0c0,0.1,0,0.1,0,0.1c0,0,0,0.1,0,0.1c0,0.4,0,0.8-0.1,1.2c-0.4,0-0.7,0-1.1,0
		c-8.1,0-14.7,6.6-14.7,14.7c0,3.5,1.2,6.7,3.2,9.1c-5.6,5-12.8,7.9-20.4,8.5h-5.1c-8.6-0.7-16.7-4.3-22.7-10.4
		c-0.7-0.7-1.4-1.5-2-2.3c0,0,0,0,0,0c-2.5-2.9-4.6-6.3-5.9-9.9c0,0,0,0,0,0C36,82,35.1,78.1,35,73.9H106.3z M105.1,111.5v6H33.5v-2
		h39v-1.6h-39v-2.4L105.1,111.5z"/>
</g>
</svg>
