<?xml version="1.0" encoding="utf-8"?>
<!-- Generator: Adobe Illustrator 17.1.0, SVG Export Plug-In . SVG Version: 6.00 Build 0)  -->
<!DOCTYPE svg PUBLIC "-//W3C//DTD SVG 1.1//EN" "http://www.w3.org/Graphics/SVG/1.1/DTD/svg11.dtd">
<svg xmlns="http://www.w3.org/2000/svg" viewBox="0 0 566.9 595.3" version="1.1" xmlns:xlink="http://www.w3.org/1999/xlink" x="0px" y="0px" xml:space="preserve"><path fill="none" d="M325.2 397.7c-1.4 2.6-.8 3.1 1.3.9l133-137.8-75.3 21.9-59 115zM405.2 143.8h-97.3c-3 0-4.1 2-2.4 4.5l75.6 115.4 94.7-27.5-62-88c-1.8-2.4-5.6-4.4-8.6-4.4z"/><path fill="#D82127" d="M261.5 148.3c1.6-2.5.5-4.5-2.4-4.5h-97.3c-3 0-6.8 2-8.5 4.4l-62.1 88.1 94.4 27.9 75.9-115.9zM183.1 283.2L107.7 261l132.8 137.6c2.1 2.1 2.6 1.7 1.3-.9l-58.7-114.5z"/><path fill="#EE4748" d="M361.6 284.8H205.3l78.2 152.4zM283.5 149.6l-76.2 116.1h152.3z"/><path d="M500.4 238.2l-76.8-109c-1.7-2.4-5.5-4.4-8.5-4.4H151.9c-3 0-6.8 2-8.5 4.4l-76.8 109c-1.7 2.4-1.4 6.2.6 8.3L272.3 459l11.2 11.6 11.2-11.6 205.1-212.5c2-2.2 2.3-5.9.6-8.3zm-347.2-90c1.7-2.4 5.5-4.4 8.5-4.4H259c3 0 4.1 2 2.4 4.5l-75.9 115.8-94.4-27.9 62.1-88zm87.3 250.4L107.7 261l75.4 22.3 58.7 114.4c1.3 2.6.7 3-1.3.9zm43-249l76.1 116.2H207.3l76.2-116.2zm78.1 135.2l-78.2 152.4-78.2-152.4h156.4zm-35.2 113.8c-2.1 2.1-2.6 1.7-1.3-.9l59-115 75.3-21.9-133 137.8zm54.7-134.9l-75.6-115.4c-1.6-2.5-.5-4.5 2.4-4.5h97.3c3 0 6.8 2 8.5 4.4l62 88-94.6 27.5z"/></svg>