<?xml version="1.0" encoding="utf-8"?>
<!-- Generator: Adobe Illustrator 19.1.0, SVG Export Plug-In . SVG Version: 6.00 Build 0)  -->
<svg version="1.0" id="Layer_1" xmlns="http://www.w3.org/2000/svg" xmlns:xlink="http://www.w3.org/1999/xlink" x="0px" y="0px"
	 viewBox="0 0 150 150" style="enable-background:new 0 0 150 150;" xml:space="preserve">
<style type="text/css">
	.st0{fill:#C7E9F2;}
	.st1{fill:#707C8B;}
</style>
<g>
	<path class="st0" d="M72.8,59.6c0.9,0.4,1.8,0.6,2.7,0.6c0.9,0,1.8-0.2,2.7-0.6l1.3-0.6l1.8-7.4l-0.1,0c-3.8,0.9-7.7,0.9-11.4,0
		l-0.1,0l1.8,7.4L72.8,59.6z"/>
</g>
<g>
	<path class="st0" d="M72.4,125l-7.5-8.6c-0.7-0.9-1.1-2-0.9-3.1l6.2-45.8l0.5,0.2c3,1.1,6.3,1.1,9.2,0l0.5-0.2L83,85.6L72.4,125z"
		/>
</g>
<g>
	<path d="M81.2,51.6L79.4,59l-1.3,0.6c-0.9,0.4-1.8,0.6-2.7,0.6c-0.9,0-1.8-0.2-2.7-0.6L71.4,59l-1.8-7.4l0.1,0
		c1.9,0.4,3.8,0.7,5.7,0.7C77.3,52.3,79.3,52,81.2,51.6L81.2,51.6 M66.2,48.2l1,4l1.8,7.4l0.3,1.2l1.2,0.5l1.3,0.6
		c1.2,0.5,2.4,0.8,3.7,0.8c1.2,0,2.5-0.3,3.7-0.8l1.3-0.6l1.2-0.5l0.3-1.2l1.8-7.4l1-4l-4,0.9l-0.1,0c-1.7,0.4-3.4,0.6-5.1,0.6
		c-1.7,0-3.5-0.2-5.1-0.6l-0.1,0L66.2,48.2L66.2,48.2z"/>
</g>
<g>
	<path d="M75.4,129.2c-1.7,0-3.2-0.7-4.3-2l-7.7-8.9c-1.1-1.3-1.6-2.9-1.4-4.6l6.7-49.6l2.5,0.9c2.7,1,5.7,1,8.4,0l2.5-0.9l5.5,40.9
		c0.1,0.9-0.5,1.7-1.4,1.9c-0.9,0.1-1.7-0.5-1.9-1.4l-5-36.9c-2.6,0.7-5.4,0.7-8,0l-6.2,45.5c-0.1,0.7,0.1,1.4,0.6,1.9l7.7,8.9
		c0.9,1.1,2.7,1.1,3.7,0c0.6-0.7,1.6-0.8,2.3-0.2c0.7,0.6,0.8,1.6,0.2,2.3C78.7,128.4,77.1,129.2,75.4,129.2z"/>
</g>
<g>
	<path class="st1" d="M100.6,27c-0.9-0.2-3.3,1.7-6.3,1.7c-3.9,0-6.1-3.7-12.2-3.7c-4.9,0-8.5,0-13.3,0c-6.1,0-7.7,4-11.6,4
		c-3.1,0-6.1-2.2-7-2c-0.8,0.2,2.9,12.7,13.6,12.7c7,0,11.1-3.7,11.6-3.7C76,36,80,39.7,87,39.7C97.7,39.7,101.5,27.2,100.6,27z"/>
</g>
<g>
	<path d="M82.1,25c6.1,0,8,6,11.9,6c3,0,4.3-2.8,5.1-2.8c0,0,0.1,0,0.1,0c0.8,0.2-1.5,10.3-12.2,10.3c-7,0-11.1-4.9-11.6-4.9
		c-0.5,0-4.6,4.9-11.6,4.9c-10.7,0-13-10.2-12.2-10.3c0,0,0.1,0,0.1,0c0.8,0,2.2,2.8,5.1,2.8c3.9,0,5.8-6,11.9-6
		c4.9,0,6.3,3.4,6.7,3.4C75.7,28.4,77.2,25,82.1,25 M82.1,21.7c-3.1,0-5.2,1-6.7,2.1c-1.5-1.1-3.6-2.1-6.7-2.1
		c-4.7,0-7.5,2.5-9.5,4.3c-0.9,0.8-1.9,1.7-2.4,1.7c-0.5,0-1-0.4-1.7-1.1c-0.7-0.7-1.8-1.7-3.4-1.7c-0.3,0-0.6,0-0.8,0.1
		c-0.3,0.1-3.1,0.8-2.7,4.4c0.5,4.1,4.9,12.5,15.6,12.5c5.4,0,9.4-2.4,11.6-4.1c2.2,1.7,6.2,4.1,11.6,4.1c10.7,0,15.1-8.4,15.6-12.5
		c0.4-3.6-2.4-4.3-2.7-4.4c-0.3-0.1-0.5-0.1-0.8-0.1c-1.6,0-2.7,1-3.4,1.7c-0.7,0.7-1.2,1.1-1.7,1.1c-0.5,0-1.5-0.9-2.4-1.7
		C89.6,24.2,86.8,21.7,82.1,21.7L82.1,21.7z"/>
</g>
</svg>
