<?xml version="1.0" encoding="utf-8"?>
<!-- Generator: Adobe Illustrator 19.0.0, SVG Export Plug-In . SVG Version: 6.00 Build 0)  -->
<svg version="1.1" id="Capa_1" xmlns="http://www.w3.org/2000/svg" xmlns:xlink="http://www.w3.org/1999/xlink" x="0px" y="0px"
	 viewBox="463.6 -1.6 30 28" style="enable-background:new 463.6 -1.6 30 28;" xml:space="preserve">
<style type="text/css">
	.st0{fill:#F2CA27;}
	.st1{fill:#E7E7E7;}
</style>
<path class="st0" d="M493.6,9c-0.1-0.4-0.5-0.7-0.9-0.7l-9.4-0.8L479.6-1c-0.2-0.4-0.5-0.6-1-0.6s-0.8,0.2-1,0.6L474,7.5l-9.4,0.8
	c-0.4,0-0.8,0.3-0.9,0.7s0,0.8,0.3,1.1l7.1,6l-2.1,9c-0.1,0.4,0.1,0.8,0.4,1s0.8,0.3,1.1,0.1l8.1-4.8l8.1,4.8
	c0.2,0.1,0.3,0.2,0.5,0.2c0.2,0,0.4-0.1,0.6-0.2c0.3-0.2,0.5-0.7,0.4-1l-2.1-9l7.1-6C493.6,9.8,493.7,9.4,493.6,9z"/>
<g>
	<path class="st0" d="M430.8,17c-0.4,0-0.8,0.2-1,0.6l-3.7,8.5l-9.4,0.8c-0.4,0-0.8,0.3-0.9,0.7c-0.1,0.4,0,0.8,0.3,1.1l7.1,6
		l-2.1,9c-0.1,0.4,0.1,0.8,0.4,1c0.3,0.2,0.8,0.3,1.1,0.1l8.1-4.8l0,0L430.8,17C430.8,17,430.8,17,430.8,17z"/>
	<path class="st1" d="M445.8,27.7c-0.1-0.4-0.5-0.7-0.9-0.7l-9.4-0.8l-3.7-8.5c-0.2-0.4-0.5-0.6-0.9-0.6v23.1l8.1,4.8
		c0.2,0.1,0.3,0.2,0.5,0.2c0.2,0,0.4-0.1,0.6-0.2c0.3-0.2,0.5-0.7,0.4-1l-2.1-9l7.1-6C445.8,28.5,445.9,28,445.8,27.7z"/>
</g>
</svg>
