<?xml version="1.0" encoding="UTF-8" standalone="no"?>
<svg width="16px" height="15px" viewBox="0 0 16 15" version="1.1" xmlns="http://www.w3.org/2000/svg" xmlns:xlink="http://www.w3.org/1999/xlink" xmlns:sketch="http://www.bohemiancoding.com/sketch/ns">
    <!-- Generator: bin/sketchtool 1.4 (305) - http://www.bohemiancoding.com/sketch -->
    <title>noun_39035_cc copy 8</title>
    <desc>Created with bin/sketchtool.</desc>
    <defs></defs>
    <g id="Page-1" stroke="none" stroke-width="1" fill="none" fill-rule="evenodd" sketch:type="MSPage">
        <g id="Interna---Curso" sketch:type="MSArtboardGroup" transform="translate(-381.000000, -3166.000000)" fill="#E1E1E1">
            <g id="Group" sketch:type="MSLayerGroup" transform="translate(219.000000, 2892.000000)">
                <g id="noun_39035_cc-copy-8" transform="translate(162.367347, 274.500000)" sketch:type="MSShapeGroup">
                    <path d="M11.6340659,14.1743407 C11.5307143,14.1743407 11.4268681,14.1497802 11.3319231,14.0996703 L7.45104396,12.0595055 L3.57032967,14.0996703 C3.47538462,14.1497802 3.37153846,14.1743407 3.26818681,14.1743407 C3.13351648,14.1743407 2.99967033,14.1324725 2.88642857,14.0503846 C2.68648352,13.905 2.58626374,13.6587363 2.62813187,13.4152747 L3.36923077,9.09395604 L0.229615385,6.03346154 C0.0525824176,5.86087912 -0.011043956,5.60291209 0.0652747253,5.36769231 C0.141758242,5.13263736 0.345,4.96137363 0.589615385,4.92576923 L4.92840659,4.29527473 L6.86868132,0.363461538 C6.97813187,0.141758242 7.20379121,0.00148351648 7.45104396,0.00148351648 C7.6982967,0.00148351648 7.92395604,0.141758242 8.03340659,0.363461538 L9.97384615,4.29527473 L14.3126374,4.92576923 C14.5572527,4.96120879 14.7604945,5.13247253 14.836978,5.36769231 C14.9132967,5.60274725 14.8496703,5.86087912 14.6726374,6.03346154 L11.533022,9.09379121 L12.2741209,13.4151099 C12.315989,13.6585714 12.2157692,13.9048352 12.0158242,14.0502198 C11.9025824,14.1324725 11.7685714,14.1743407 11.6340659,14.1743407 L11.6340659,14.1743407 Z" id="Shape"></path>
                </g>
            </g>
        </g>
    </g>
</svg>